<svg xmlns="http://www.w3.org/2000/svg" viewBox="0 0 1464 24" width="1464" height="24"><path d="M19.14 12.94c.04-.3.06-.61.06-.94 0-.32-.02-.64-.07-.94l2.03-1.58c.18-.14.23-.41.12-.61l-1.92-3.32c-.12-.22-.37-.29-.59-.22l-2.39.96c-.5-.38-1.03-.7-1.62-.94l-.36-2.54c-.04-.24-.24-.41-.48-.41h-3.84c-.24 0-.43.17-.47.41l-.36 2.54c-.59.24-1.13.57-1.62.94l-2.39-.96c-.22-.08-.47 0-.59.22L2.74 8.87c-.12.21-.08.47.12.61l2.03 1.58c-.05.3-.09.63-.09.94 0 .31.02.64.07.94l-2.03 1.58c-.18.14-.23.41-.12.61l1.92 3.32c.12.22.37.29.59.22l2.39-.96c.5.38 1.03.7 1.62.94l.36 2.54c.05.24.24.41.48.41h3.84c.24 0 .44-.17.47-.41l.36-2.54c.59-.24 1.13-.56 1.62-.94l2.39.96c.22.08.47 0 .59-.22l1.92-3.32c.12-.22.07-.47-.12-.61l-2.01-1.58zM12 15.6c-1.98 0-3.6-1.62-3.6-3.6s1.62-3.6 3.6-3.6 3.6 1.62 3.6 3.6-1.62 3.6-3.6 3.6zM43.044238 13.4973c.063415-.295937.107675-.603412.133567-.932395.025107-.319013.030275-.639596.003967-.942594l2.147708-1.415857c.19043-.125446.261459-.39069.16749-.598705l-1.653597-3.460407c-.10237-.228737-.346107-.318136-.57092-.265613l-2.457954.769524c-.468644-.418058-.971903-.778655-1.541254-1.064206l-.159604-2.560415c-.021047-.242399-.207092-.427567-.446352-.446397l-3.828163-.301283c-.23926-.01883-.442012.135739-.50072.37186l-.558176 2.503925c-.607011.19297-1.171238.479584-1.688757.809999L29.78416 4.820178c-.213045-.097014-.468551-.036876-.605442.17303l-2.164597 3.15991c-.136106.199937-.116629.462274.07177.617534l1.899777 1.734402c-.073383.295152-.139151.620996-.163474.93004-.024322.309045-.030275.639597-.003967.942595l-2.147708 1.415857c-.19043.125446-.261459.39069-.16749.598705l1.653597 3.460407c.10237.228737.346107.318136.57092.265613l2.457954-.769524c.468644.418058.971903.778655 1.541254 1.064206l.159604 2.560415c.031016.243184.207092.427567.446352.446397l3.828163.301283c.23926.01883.451982-.134954.50072-.37186l.558176-2.503925c.607011-.19297 1.170453-.469615 1.688757-.809999l2.307312 1.144558c.213045.097014.468551.036876.605442-.17303l2.174566-3.159125c.13689-.209907.10666-.463059-.07177-.617535L43.044238 13.4973zm-7.32669 2.091602c-1.973897-.155349-3.4618-1.897458-3.30645-3.871355.155349-1.973896 1.897458-3.461798 3.871355-3.30645 1.973896.15535 3.461798 1.89746 3.30645 3.871356-.15535 1.973896-1.89746 3.461798-3.871356 3.30645zM66.905046 14.04537c.086438-.29005.154687-.593105.20631-.919042.05006-.31606.080364-.63525.07791-.939377l2.252174-1.242986c.199685-.110118.291307-.368972.213948-.583718l-1.377-3.57948c-.084107-.236063-.320078-.34431-.54832-.309587l-2.510752.574303c-.4344-.45354-.907815-.85251-1.453007-1.181851l.041776-2.565045c-.001964-.243303-.172907-.442497-.409953-.48004l-3.792723-.60071c-.237045-.037544-.4513.100641-.528351.331429l-.752912 2.452412c-.62028.144749-1.205255.386211-1.747103.675003l-2.210398-1.32206c-.204777-.11343-.464214-.073523-.617152.124996l-2.405847 2.980335c-.151374.188643-.15254.4517.023097.621262l1.757841 1.87811c-.096314.288485-.187445.608164-.23594.914348-.048495.306183-.080364.63525-.07791.939377l-2.252174 1.242986c-.199685.110118-.291307.368972-.213948.583718l1.377 3.57948c.084107.236063.320078.34431.54832.309587l2.510752-.574303c.4344.45354.907815.85251 1.453007 1.181851l-.041776 2.565045c.01184.244867.172907.442497.409953.48004l3.792723.60071c.237045.037544.461176-.099077.528351-.331429l.752912-2.452412c.62028-.144749 1.20369-.376334 1.747103-.675003l2.210398 1.32206c.204777.11343.464214.073523.617152-.124996l2.415724-2.978771c.152938-.19852.142662-.453263-.023098-.621262l-1.738087-1.87498zm-7.46821 1.510308c-1.955623-.30974-3.302254-2.16322-2.992514-4.118842.30974-1.955623 2.16322-3.302254 4.118842-2.992514 1.955623.30974 3.302254 2.16322 2.992514 4.118842-.30974 1.955623-2.16322 3.302254-4.118842 2.992514zM90.723283 14.580828c.108928-.282374.200743-.57914.27778-.900021.074703-.311159.129958-.626986.151373-.93037l2.342755-1.06245c.207709-.094111.319357-.344979.259086-.565132l-1.091912-3.676483c-.065326-.241935-.292078-.368362-.52234-.351654l-2.548072.37554c-.397475-.486223-.838129-.921107-1.3558-1.292209l.242898-2.55386c.017132-.242706-.137656-.454698-.371025-.510725l-3.7339-.89643c-.23337-.056027-.457806.064921-.552727.288952l-.943005 2.38578c-.629725.095635-1.231841.290457-1.794678.535846l-2.099856-1.49141c-.195246-.129148-.457014-.10972-.625056.076189l-2.632265 2.782387c-.165708.176184-.18751.438338-.025718.62116l1.605068 2.010238c-.118653.280038-.234584.591583-.306952.893017-.072368.301435-.129958.626986-.151373.93037l-2.342755 1.06245c-.207709.094111-.319357.344979-.259086.565132l1.091912 3.676483c.065326.241935.292078.368362.52234.351654l2.548072-.37554c.397475.486223.838129.921107 1.3558 1.292209l-.242898 2.55386c-.007408.24504.137656.454698.371025.510725l3.7339.89643c.23337.056027.46753-.062587.552727-.288952l.943005-2.38578c.629725-.095635 1.229507-.280733 1.794678-.535846l2.099856 1.49141c.195246.129148.457014.10972.625056-.076189l2.64199-2.780053c.168042-.185908.177784-.440672.025716-.621159l-1.58562-2.00557zm-7.563686.919704c-1.925293-.462222-3.12235-2.415643-2.660129-4.340935.462222-1.925293 2.415643-3.12235 4.340935-2.660129 1.925293.462222 3.12235 2.415643 2.660129 4.340935-.462222 1.925293-2.415643 3.12235-4.340935 2.660129zM114.500068 15.100374c.130747-.272956.245563-.561603.347539-.875452.098885-.304338.17875-.614856.223902-.915624l2.418892-.875365c.214452-.077525.34544-.318859.302627-.543062l-.800092-3.75082c-.046143-.246315-.262276-.390143-.49314-.391553l-2.569681.174464c-.358102-.51591-.763277-.984027-1.250236-1.3946l.442523-2.52693c.036122-.240615-.101557-.464098-.32981-.538262l-3.652057-1.186625c-.228254-.074164-.461488.028802-.573694.244695l-1.127283 2.304437c-.635288.045934-1.250834.192913-1.831188.393386l-1.976369-1.651565c-.18451-.144068-.446996-.145238-.629107.026913l-2.842454 2.567285c-.17902.16264-.221323.422275-.074374.617226l1.442398 2.129974c-.140258.269866-.280276.571354-.37607.866182-.095796.294827-.17875.614856-.223903.915624l-2.418892.875365c-.214452.077525-.34544.318859-.302627.543062l.800092 3.75082c.046143.246315.262276.390143.49314.391553l2.569681-.174464c.358102.51591.763277.984027 1.250236 1.3946l-.442523 2.52693c-.026611.243705.101557.464098.32981.538262l3.652057 1.186625c.228254.074164.470998-.025712.573694-.244695l1.127283-2.304437c.635288-.045934 1.247744-.183403 1.831188-.393386l1.976369 1.651565c.18451.144068.446996.145238.629107-.026913l2.851965-2.564195c.18211-.17215.211812-.425365.074373-.617226l-1.423376-2.123794zm-7.61253.32343c-1.883091-.611854-2.923195-2.653173-2.311341-4.536265.611853-1.883092 2.653172-2.923196 4.536264-2.311342 1.883092.611853 2.923196 2.653172 2.311342 4.536264-.611853 1.883092-2.653172 2.923196-4.536264 2.311342zM138.236777 15.600806c.15176-.261856.28887-.540605.415156-.845485.122458-.295642.22644-.598937.29505-.895235l2.480116-.682882c.219874-.06046.369392-.290774.344302-.517645l-.50334-3.802032c-.026675-.249175-.230857-.409518-.460898-.429037l-2.575448-.027689c-.31652-.542416-.683718-1.04088-1.136963-1.488394l.63942-2.48442c.054888-.237038-.064831-.470634-.286562-.562478l-3.547698-1.469505c-.22173-.091844-.462324-.007494-.591123.19893l-1.304613 2.208888c-.636933-.004052-1.262113.094179-1.856407.2485l-1.840696-1.801538c-.172639-.158101-.434224-.179862-.62928-.02253l-3.035118 2.336354c-.19123.148093-.253772.40361-.122572.609489l1.270836 2.236577c-.161.25803-.32424.547603-.442872.834005-.118631.286403-.22644.598937-.29505.895235l-2.480116.682882c-.219874.06046-.369392.290774-.344302.517645l.50334 3.802032c.026675.249175.230857.409518.460898.429037l2.575448.027689c.31652.542416.683718 1.04088 1.136963 1.488394l-.63942 2.48442c-.04565.240865.064831.470634.286562.562478l3.547698 1.469505c.22173.091844.471563.01132.591123-.19893l1.304613-2.208888c.636933.004052 1.258286-.08494 1.856407-.2485l1.840696 1.801538c.172639.158101.434224.179862.62928.02253l3.044357-2.332528c.195056-.157331.244533-.407435.122571-.609488l-1.252358-2.228924zm-7.614437-.27484c-1.829282-.757713-2.70602-2.874345-1.948306-4.703626.757713-1.829282 2.874345-2.70602 4.703626-1.948306 1.829282.757713 2.70602 2.874345 1.948306 4.703626-.757713 1.829282-2.874345 2.70602-4.703626 1.948306zM161.935036 16.079038c.171837-.249142.330394-.516274.480211-.810306.145277-.285122.272734-.579324.36438-.869326l2.526049-.48619c.22394-.043022.391067-.260894.383855-.489035l-.203484-3.829803c-.007043-.2505-.198015-.426368-.425816-.463876l-2.565337-.22967c-.272987-.565579-.599943-1.091316-1.01668-1.573012l.832374-2.426593c.073318-.232-.027705-.47427-.241547-.583228l-3.421465-1.743323c-.213841-.108958-.46031-.043745-.604909.151937l-1.473898 2.09972c-.634652-.054013-1.265612-.005136-1.870182.102081l-1.693674-1.940403c-.159703-.171159-.418774-.213376-.625572-.071833l-3.209071 2.09102c-.202259.132632-.284656.382453-.170014.597992l1.091439 2.329391c-.180748.244603-.366205.520475-.506942.796687s-.272734.579324-.36438.869326l-2.526049.48619c-.22394.043022-.391067.260894-.383855.489035l.203484 3.829803c.007043.2505.198015.426368.425816.463876l2.565337.22967c.272987.565579.599943 1.091316 1.01668 1.573012l-.832374 2.426593c-.064408.23654.027705.47427.241547.583228l3.421465 1.743323c.213841.108958.469221.048285.604909-.151937l1.473898-2.09972c.634652.054013 1.261072.014046 1.870182-.102081l1.693674 1.940403c.159703.171159.418774.213376.625572.071833l3.217981-2.08648c.206799-.141542.275746-.386993.170014-.597992l-1.073618-2.320312zm-7.569402-.871415c-1.764193-.8989-2.472159-3.077796-1.573257-4.841989.8989-1.764193 3.077796-2.472159 4.841989-1.573257 1.764193.8989 2.472159 3.077796 1.573257 4.841989-.8989 1.764193-3.077796 2.472159-4.841989 1.573257zM185.596702 16.532122c.190855-.234893.369883-.488761.542307-.770132.1672-.272845.317346-.55614.431464-.838057l2.556407-.2865c.226625-.02532.410332-.229407.421041-.45741l.097626-3.833963c.012633-.25028-.163952-.44059-.388108-.495855l-2.539408-.430237c-.22777-.585252-.51247-1.135021-.890129-1.64793l1.020196-2.353805c.091294-.225533.009591-.474982-.195043-.600381l-3.274138-2.006395c-.204634-.1254-.45546-.079725-.614965.104008l-1.634097 1.977607c-.628457-.10364-1.261308-.104419-1.872426-.044966L177.721218 2.7808c-.145781-.183161-.400741-.245575-.618007-.120694L173.739973 4.4929c-.212042.116354-.313786.35894-.216408.58281l.905312 2.407843c-.199381.229668-.405912.490139-.567886.754457-.161975.264319-.317346.55614-.431464.838057l-2.556407.2865c-.226625.02532-.410332.229407-.421041.45741l-.097626 3.833963c-.012633.25028.163952.44059.388108.495855l2.539408.430237c.22777.585252.51247 1.135021.890129 1.64793l-1.020196 2.353805c-.082768.230758-.009591.474982.195043.600381l3.274138 2.006395c.204634.1254.463986.08495.614965-.104008l1.634097-1.977607c.628457.10364 1.256083.112945 1.872426.044966l1.536211 2.067306c.145781.183161.400741.245575.618007.120694l3.371765-1.827569c.217266-.12488.305259-.364166.216407-.58281l-.888259-2.397393zm-7.477697-1.462617c-1.688227-1.034548-2.223057-3.262272-1.18851-4.9505 1.034548-1.688227 3.262272-2.223057 4.9505-1.18851 1.688227 1.034548 2.223057 3.262272 1.18851 4.9505-1.034548 1.688227-3.262272 2.223057-4.9505 1.18851zM209.223863 16.957263c.208696-.219194.40709-.458234.60106-.72521.18809-.258885.360002-.529526.495886-.80162l2.571006-.085043c.227912-.00746.427065-.196506.45563-.422966l.398135-3.814484c.03223-.248518-.128879-.452096-.348007-.524777l-2.497825-.62815c-.18115-.60132-.421838-1.171731-.75809-1.712689l1.20173-2.266506c.108707-.217675.046827-.472765-.147337-.613833l-3.106625-2.257096c-.194164-.141068-.447801-.115215-.62123.055438l-1.78422 1.8433c-.61839-.152629-1.249228-.203057-1.863126-.191736l-1.369277-2.181463c-.130961-.194034-.380238-.276259-.606633-.16881l-3.49667 1.563267c-.220516.09936-.34098.333216-.261466.564035l.713603 2.47145c-.216786.213317-.443116.45678-.62533.707576-.182213.250795-.360002.529527-.495886.801621l-2.571006.085043c-.227912.00746-.427065.196506-.45563.422966l-.398135 3.814484c-.03223.248518.128879.452096.348007.524777l2.497825.62815c.18115.60132.421838 1.171731.75809 1.712689l-1.20173 2.266506c-.100617.223553-.046827.472765.147337.613833l3.106625 2.257096c.194164.141068.455891.121092.62123-.055438l1.78422-1.8433c.61839.152629 1.24335.211147 1.863126.191736l1.369277 2.181463c.130961.194034.380238.276259.606633.16881l3.50476-1.55739c.226394-.107449.33289-.339093.261467-.564034l-.697424-2.459695zm-7.33989-2.044802c-1.601854-1.163815-1.960249-3.426634-.796434-5.028488 1.163815-1.601854 3.426634-1.960249 5.028488-.796434 1.601854 1.163815 1.960249 3.426634.796434 5.028488-1.163815 1.601854-3.426634 1.960249-5.028488.796434zM232.818817 17.35184c.225251-.202143.441788-.42488.656106-.675814.207823-.24333.400439-.499649.557253-.760243l2.569752.116938c.227796.010444.441167-.162393.487412-.385914l.696188-3.771488c.05163-.245223-.09301-.460813-.305761-.550464l-2.44084-.82219c-.133413-.613679-.328605-1.201216-.621377-1.766888l1.375852-2.165233c.125451-.208475.083776-.467633-.098721-.623501l-2.91996-2.49388c-.182497-.155868-.43738-.149994-.623664.006525l-1.923344 1.69763c-.604507-.200677-1.229444-.300445-1.842339-.337324l-1.1939-2.28217c-.115333-.203712-.35739-.305241-.591518-.215886l-3.608543 1.284102c-.227633.081752-.366073.305435-.304914.541782l.517496 2.51982c-.232855.19565-.47759.420606-.678918.656332-.201329.235726-.400439.499649-.557253.760243l-2.569752-.116938c-.227796-.010444-.441167.162393-.487412.385914l-.696188 3.771488c-.05163.245223.09301.460813.305761.550464l2.44084.82219c.133413.613679.328605 1.201216.621377 1.766888l-1.375852 2.165233c-.117847.21497-.083776.467633.098721.623501l2.91996 2.49388c.182497.155868.444984.156489.623664-.006525l1.923344-1.69763c.604507.200677 1.22295.308049 1.842339.337324l1.1939 2.28217c.115333.203712.35739.305241.591518.215886l3.616147-1.277608c.234127-.089355.358469-.31193.304915-.541781l-.502289-2.506832zm-7.15683-2.614379c-1.505604-1.285907-1.685356-3.56987-.399448-5.075474 1.285907-1.505604 3.56987-1.685356 5.075474-.399448 1.505604 1.285907 1.685356 3.56987.399448 5.075474-1.285907 1.505604-3.56987 1.685356-5.075474.399448zM256.384062 17.713423c.240416-.183848.473762-.388909.707107-.622254.226274-.226274.438406-.46669.615183-.714178l2.552655.318198c.226274.028284.452549-.12728.516188-.346482l.98995-3.70524c.07071-.240416-.056569-.46669-.26163-.572756l-2.368808-1.011163c-.084852-.622254-.233345-1.223295-.480832-1.810193l1.541493-2.05061c.141421-.19799.120208-.45962-.049498-.629325l-2.71529-2.71529c-.169706-.169706-.424264-.183848-.622254-.042427l-2.05061 1.541493c-.586898-.247487-1.202081-.39598-1.810193-.480832l-1.011163-2.368808c-.098995-.212132-.33234-.33234-.572756-.26163l-3.698169.997021c-.233345.06364-.388908.275772-.346482.516188l.318198 2.552655c-.247487.176777-.509117.381838-.72832.601041-.219203.219203-.438406.46669-.615183.714178l-2.552655-.318198c-.226274-.028284-.452549.12728-.516188.346482l-.98995 3.70524c-.07071.240416.056569.46669.26163.572756l2.368808 1.011163c.084852.622254.233345 1.223295.480832 1.810193l-1.541493 2.05061c-.13435.205061-.120208.45962.049498.629325l2.71529 2.71529c.169706.169706.431335.190919.622254.042427l2.05061-1.541493c.586898.247487 1.19501.40305 1.810193.480832l1.011163 2.368808c.098995.212132.33234.33234.572756.26163l3.70524-.98995c.240416-.07071.381837-.282843.346482-.516188l-.304056-2.538513zm-6.929646-3.167839c-1.400072-1.400071-1.400072-3.691097 0-5.091168 1.400071-1.400072 3.691097-1.400072 5.091168 0 1.400072 1.400071 1.400072 3.691097 0 5.091168-1.400071 1.400072-3.691097 1.400072-5.091168 0zM279.922277 18.03978c.2541-.164418.502815-.35054.753749-.564857.24333-.207823.47367-.430855.66932-.66371l2.519821.517497c.223358.04595.46114-.09138.541782-.304915l1.277607-3.616147c.089356-.234127-.019778-.46969-.215885-.591518l-2.28217-1.1939c-.03577-.626993-.136648-1.237832-.337325-1.84234l1.69763-1.923343c.15652-.186284.1559-.448771.000032-.631269l-2.493881-2.919959c-.155868-.182497-.408532-.216568-.617007-.091117l-2.165232 1.375852c-.565672-.292772-1.167308-.489073-1.766888-.621376l-.822191-2.44084c-.082046-.219246-.30524-.357392-.550464-.305762l-3.764993.703792c-.23762.045136-.409347.244408-.385914.487412l.116938 2.569752c-.260594.156815-.537506.340716-.773232.542045-.235726.201329-.47367.430855-.66932.66371l-2.519821-.517497c-.223358-.04595-.46114.09138-.541782.304915l-1.277607 3.616147c-.089356.234127.019778.46969.215885.591518l2.28217 1.1939c.03577.626993.136648 1.237832.337325 1.84234l-1.69763 1.923343c-.150025.193888-.1559.448771-.000032.631269l2.493881 2.919959c.155868.182497.415026.224172.617007.091117l2.165232-1.375852c.565672.292772 1.159704.495568 1.766888.621376l.822191 2.44084c.082046.219246.30524.357392.550464.305762l3.771488-.696188c.245223-.05163.402852-.252012.385914-.487412l-.10395-2.554544zm-6.659738-3.701767c-1.285908-1.505604-1.106156-3.789567.399448-5.075474 1.505604-1.285908 3.789567-1.106156 5.075474.399448 1.285908 1.505604 1.106156 3.789567-.399448 5.075474-1.505604 1.285908-3.789567 1.106156-5.075474-.399448zM303.43631 18.3289c.266217-.143975.528768-.310009.795744-.503978.258885-.18809.506015-.392363.71933-.609149l2.471452.713604c.219063.063333.466887-.054918.564034-.261467l1.55739-3.50476c.107449-.226395.017133-.469794-.16881-.606633l-2.181464-1.369276c.013534-.627867-.039106-1.244738-.191736-1.863126l1.8433-1.78422c.170653-.17343.19063-.435157.04956-.62932l-2.257095-3.106626c-.141068-.194164-.39028-.247954-.607956-.139246l-2.266505 1.201728c-.540958-.336251-1.125337-.579151-1.712689-.75809l-.62815-2.497824c-.064591-.225006-.276259-.380238-.524777-.348007l-3.808606.406225c-.240428.026353-.427261.211538-.422966.45563l-.085043 2.571006c-.272095.135885-.562582.297493-.813377.479707-.250795.182213-.506015.392363-.71933.609149l-2.471452-.713604c-.219063-.063333-.466887.054918-.564034.261467l-1.55739 3.50476c-.107449.226395-.017133.469794.16881.606633l2.181464 1.369276c-.013534.627867.039106 1.244738.191736 1.863126l-1.8433 1.78422c-.164776.18152-.19063.435157-.04956.62932l2.257095 3.106626c.141068.194164.396158.256044.607956.139246l2.266505-1.201728c.540958.336251 1.117247.58503 1.712689.75809l.62815 2.497824c.064591.225006.276259.380238.524777.348007l3.814484-.398135c.248518-.03223.421383-.219628.422966-.45563l.096799-2.554826zm-6.348771-4.212873c-1.163815-1.601854-.80542-3.864673.796434-5.028488 1.601854-1.163815 3.864673-.80542 5.028488.796434 1.163815 1.601854.80542 3.864673-.796434 5.028488-1.601854 1.163815-3.864673.80542-5.028488-.796434zM326.929158 18.579c.276692-.122645.55146-.267566.832832-.43999.272845-.1672.53524-.351453.764907-.550834l2.407843.905312c.21342.080325.469757-.018118.58281-.216408l1.827568-3.371764c.124882-.217267.053942-.467002-.120693-.618008l-2.067306-1.53621c.062754-.62487.058675-1.24397-.044966-1.872427l1.977607-1.634096c.183733-.159506.224182-.418858.098783-.623492l-2.006395-3.274138c-.1254-.204634-.369623-.27781-.595156-.186517l-2.353806 1.020196c-.512908-.377658-1.076428-.66566-1.64793-.890128l-.430236-2.539409c-.046739-.22938-.245575-.40074-.495855-.388108l-3.828738.106153c-.241754.007407-.44254.177363-.45741.42104l-.2865 2.556408c-.281917.114117-.584188.252436-.848507.41441-.264318.161975-.53524.351453-.764907.550834l-2.407843-.905312c-.21342-.080325-.469757.018118-.58281.216408l-1.827568 3.371764c-.124882.217267-.053942.467002.120693.618008l2.067306 1.53621c-.062754.62487-.058675 1.24397.044966 1.872427l-1.977607 1.634096c-.178508.168032-.224182.418858-.098783.623492l2.006395 3.274138c.1254.204634.374848.286337.595156.186517l2.353806-1.020196c.512908.377658 1.067902.670884 1.64793.890128l.430236 2.539409c.046739.22938.245575.40074.495855.388108l3.833963-.097626c.25028-.012633.437316-.18589.45741-.421041l.29695-2.539355zm-5.998663-4.698005c-1.034547-1.688228-.499717-3.915952 1.18851-4.9505 1.688228-1.034547 3.915952-.499717 4.9505 1.18851 1.034547 1.688228.499717 3.915952-1.18851 4.9505-1.688228 1.034547-3.915952.499717-4.9505-1.18851zM350.403946 18.788538c.285462-.100557.570753-.223474.864786-.373291.285122-.145277.561164-.308374.805766-.489122l2.329391 1.091439c.20646.096822.46973.018795.597993-.170014l2.08648-3.21798c.141543-.2068.090416-.46133-.071833-.625572l-1.940403-1.693675c.111587-.61802.156094-1.23553.102081-1.870182l2.09972-1.473898c.195682-.144598.256355-.399978.147397-.61382l-1.743323-3.421464c-.108958-.213842-.346687-.305955-.578688-.232637l-2.426593.832373c-.481696-.416736-1.020883-.748063-1.573011-1.01668l-.229671-2.565336c-.028598-.23234-.213376-.418773-.463876-.425816l-3.825264-.194574c-.24159-.011582-.455092.142095-.489035.383855l-.48619 2.526049c-.29.091646-.602193.205823-.878405.34656-.276212.140737-.561164.308374-.805766.489122l-2.329391-1.091439c-.20646-.096822-.46973-.018795-.597993.170014l-2.08648 3.21798c-.141543.2068-.090416.46133.071833.625572l1.940403 1.693675c-.111587.61802-.156094 1.23553-.102081 1.870182l-2.09972 1.473898c-.191142.153508-.256355.399978-.147397.61382l1.743323 3.421464c.108958.213842.351227.314865.578688.232637l2.426593-.832373c.481696.416736 1.011973.752602 1.573011 1.01668l.229671 2.565336c.028598.23234.213376.418773.463876.425816l3.829804.203484c.2505.007043.450552-.151005.489035-.383855l.495269-2.508228zm-5.61157-5.154172c-.8989-1.764193-.190935-3.943088 1.573258-4.84199 1.764193-.8989 3.943088-.190935 4.84199 1.573258.8989 1.764193.190935 3.943088-1.573258 4.84199-1.764193.8989-3.943088.190935-4.84199-1.573258zM373.863913 18.956222c.292471-.07785.586527-.178004.891408-.30429.295641-.122458.583629-.263394.841659-.424393l2.236577 1.270835c.198226.112723.466807.055592.609488-.122571l2.332528-3.044358c.157332-.195056.126332-.452813-.02253-.62928l-1.801537-1.840695c.159732-.60736.252551-1.219474.2485-1.856407l2.208887-1.304613c.206424-.1288.286947-.378631.195103-.600362L380.13449 6.55239c-.091844-.22173-.321613-.332212-.558651-.277323l-2.48442.63942c-.447515-.453245-.959044-.825855-1.488394-1.136963l-.02769-2.575448c-.01028-.233868-.17986-.434224-.429036-.460899l-3.798206-.4941c-.239936-.030503-.464838.10595-.517644.344302l-.682882 2.480115c-.296298.068611-.616486.157942-.902889.276573-.286402.118632-.583629.263395-.841659.424394l-2.236577-1.270835c-.198226-.112723-.466807-.055592-.609488.122571l-2.332528 3.044358c-.157332.195056-.126332.452813.02253.62928l1.801537 1.840695c-.159732.60736-.252551 1.219474-.2485 1.856407l-2.208887 1.304613c-.202597.138038-.286947.378631-.195103.600362l1.469505 3.547698c.091844.22173.32544.34145.558651.277323l2.48442-.63942c.447515.453245.949805.829682 1.488394 1.136963l.02769 2.575448c.01028.233868.17986.434224.429036.460899l3.802032.50334c.249176.026675.461012-.11519.517645-.344303l.690536-2.461638zm-5.18988-5.578562c-.757713-1.829281.119025-3.945913 1.948307-4.703626 1.829281-.757714 3.945913.119024 4.703626 1.948306.757714 1.829281-.119024 3.945913-1.948306 4.703626-1.829281.757714-3.945913-.119024-4.703626-1.948306zM397.312388 19.08102c.297678-.054663.598686-.131437.912534-.233413.304338-.098886.602496-.216792.872362-.35705l2.129974 1.442398c.188771.127928.461007.092046.617227-.074374l2.564195-2.851965c.17215-.18211.16147-.441505.026912-.629107l-1.651565-1.976368c.206893-.592955.347452-1.1959.393386-1.831188l2.304437-1.127284c.215893-.112206.31577-.35495.241605-.583204l-1.186625-3.652057c-.074164-.228253-.294557-.356421-.535171-.3203l-2.52693.442524c-.410573-.48696-.891291-.898555-1.3946-1.250236l.174463-2.569681c.0081-.233954-.145238-.446997-.391552-.49314l-3.74773-.790582c-.236804-.049233-.471718.069154-.543063.302628l-.875365 2.418891c-.300768.045152-.626977.109086-.921804.204881-.294828.095795-.602496.216792-.872362.35705l-2.129974-1.442398c-.188771-.127928-.461007-.092046-.617227.074374l-2.564195 2.851965c-.17215.18211-.16147.441505-.026912.629107l1.651565 1.976368c-.206893.592955-.347452 1.1959-.393386 1.831188l-2.304437 1.127284c-.212803.121716-.31577.35495-.241605.583204l1.186625 3.652057c.074164.228253.297647.365932.535171.3203l2.52693-.442524c.410573.48696.88178.901645 1.3946 1.250236l-.174463 2.569681c-.0081.233954.145238.446997.391552.49314l3.75082.800092c.246315.046143.468628-.078664.543063-.302627l.881545-2.39987zm-4.736191-5.968559c-.611854-1.883092.42825-3.92441 2.311342-4.536264 1.883092-.611854 3.92441.42825 4.536264 2.311342.611854 1.883092-.42825 3.92441-2.311342 4.536264-1.883092.611854-3.92441-.42825-4.536264-2.311342zM420.752772 19.16216c.301049-.031139.607153-.08406.928035-.161097.311158-.074702.617647-.168852.897686-.287504l2.010239 1.605067c.178152.142344.452364.127933.621159-.025717l2.780053-2.641989c.185908-.168042.195612-.427476.076188-.625056l-1.49141-2.099857c.252779-.574894.440211-1.164953.535847-1.794678l2.38578-.943004c.22403-.094922.342644-.329081.286617-.56245l-.89643-3.7339c-.056027-.23337-.265684-.378434-.50839-.361302l-2.55386.242898c-.371102-.517671-.818045-.965714-1.29221-1.3558l.37554-2.548072c.026432-.232597-.109719-.457014-.351653-.52234l-3.67415-1.082188c-.23221-.067661-.475689.03193-.565131.259086l-1.06245 2.342754c-.303384.021415-.633604.059558-.935039.131926-.301434.072368-.617647.168852-.897686.287504l-2.010239-1.605067c-.178152-.142344-.452364-.127933-.621159.025717l-2.780053 2.641989c-.185908.168042-.195612.427476-.076188.625056l1.49141 2.099857c-.252779.574894-.440211 1.164953-.535847 1.794678l-2.38578.943004c-.221696.104645-.342644.329081-.286617.56245l.89643 3.7339c.056027.23337.268019.388158.50839.361302l2.55386-.242898c.371102.517671.808321.968049 1.29221 1.3558l-.37554 2.548072c-.026432.232597.109719.457014.351653.52234l3.676484 1.091912c.241934.065327.473355-.041653.565132-.259086l1.06712-2.323307zm-4.253304-6.321757c-.462222-1.925292.734836-3.878713 2.660129-4.340935 1.925292-.462222 3.878713.734836 4.340935 2.660129.462222 1.925292-.734836 3.878713-2.660129 4.340935-1.925292.462222-3.878713-.734836-4.340935-2.660129zM444.188515 19.199143c.302564-.007423.611876-.036164.937813-.087787.31606-.050059.628992-.119872.917477-.216187l1.87811 1.757841c.166434.155883.440931.16303.621261.023098l2.978771-2.415724c.19852-.152938.22855-.41081.124996-.617152l-1.32206-2.210398c.297105-.55329.530255-1.126823.675004-1.747103l2.452412-.752912c.230787-.077052.367408-.301183.329863-.538228l-.600708-3.792723c-.037544-.237046-.235174-.398113-.478477-.400076l-2.565044.041776c-.329342-.545192-.739754-1.02692-1.181851-1.453007l.574302-2.510752c.0446-.229806-.073524-.464214-.309588-.54832l-3.577915-1.367123c-.226186-.085671-.476728-.00549-.583717.213948l-1.242986 2.252174c-.304128-.002455-.636323.009661-.942506.058156-.306184.048495-.628992.119872-.917477.216187l-1.87811-1.757841c-.166434-.155883-.440931-.16303-.621261-.023098l-2.978771 2.415724c-.19852.152938-.22855.41081-.124996.617152l1.32206 2.210398c-.297105.55329-.530255 1.126823-.675004 1.747103l-2.452412.752912c-.229223.086928-.367408.301183-.329863.538228l.600708 3.792723c.037544.237046.236738.40799.478477.400076l2.565044-.041776c.329342.545192.729877 1.028485 1.181851 1.453007l-.574302 2.510752c-.0446.229806.073524.464214.309588.54832l3.579479 1.377c.236064.084107.475164-.004386.583718-.213948l1.246114-2.23242zm-3.744193-6.635979c-.30974-1.955623 1.036891-3.809102 2.992514-4.118842 1.955623-.30974 3.809102 1.036891 4.118842 2.992514.30974 1.955623-1.036891 3.809102-2.992514 4.118842-1.955623.30974-3.809102-1.036891-4.118842-2.992514zM467.623096 19.191741c.302213.01634.612827.011955.94181-.013936.319013-.025107.636457-.070152.93161-.143536l1.734401 1.899777c.153691.16846.426782.197123.617535.07177l3.159124-2.174566c.209906-.13689.260076-.391612.17303-.605442l-1.144557-2.307312c.339599-.528273.61703-1.081746.809998-1.688757l2.503925-.558176c.236122-.058707.389906-.271429.371076-.510689l-.301283-3.828163c-.01883-.23926-.203213-.415336-.445612-.436383l-2.560415-.159604c-.285551-.56935-.656902-1.081795-1.064206-1.541254l.769523-2.457953c.062493-.225599-.036876-.468551-.265613-.57092l-3.459622-1.643628c-.218768-.103154-.474828-.042878-.598704.16749l-1.415858 2.147707c-.302998-.026308-.63512-.040293-.944163-.01597-.309045.024322-.636458.070151-.93161.143535l-1.734402-1.899777c-.153691-.16846-.426782-.197123-.617535-.07177l-3.159124 2.174566c-.209906.13689-.260076.391612-.17303.605442l1.144557 2.307312c-.339599.528273-.61703 1.081746-.809998 1.688757l-2.503925.558176c-.235337.068677-.389906.271429-.371076.510689l.301283 3.828163c.01883.23926.203998.425305.445612.436383l2.560415.159604c.285551.56935.646933 1.08258 1.064206 1.541254l-.769523 2.457953c-.062493.225599.036876.468551.265613.57092l3.460407 1.653598c.228736.102369.474043.032908.598704-.16749l1.417427-2.12777zm-3.211998-6.909288c-.15535-1.973897 1.332553-3.716006 3.30645-3.871355 1.973896-.15535 3.716005 1.332553 3.871354 3.30645.15535 1.973896-1.332553 3.716005-3.30645 3.871354-1.973896.15535-3.716005-1.332553-3.871354-3.30645zM491.06 19.14c.3.04.61.06.94.06.32 0 .64-.02.94-.07l1.58 2.03c.14.18.41.23.61.12l3.32-1.92c.22-.12.29-.37.22-.59l-.96-2.39c.38-.5.7-1.03.94-1.62l2.54-.36c.24-.04.41-.24.41-.48v-3.84c0-.24-.17-.43-.41-.47l-2.54-.36c-.24-.59-.57-1.13-.94-1.62l.96-2.39c.08-.22 0-.47-.22-.59l-3.32-1.91c-.21-.12-.47-.08-.61.12l-1.58 2.03c-.3-.05-.63-.09-.94-.09-.31 0-.64.02-.94.07l-1.58-2.03c-.14-.18-.41-.23-.61-.12l-3.32 1.92c-.22.12-.29.37-.22.59l.96 2.39c-.38.5-.7 1.03-.94 1.62l-2.54.36c-.24.05-.41.24-.41.48v3.84c0 .24.17.44.41.47l2.54.36c.24.59.56 1.13.94 1.62l-.96 2.39c-.08.22 0 .47.22.59l3.32 1.92c.22.12.47.07.61-.12l1.58-2.01zM488.4 12c0-1.98 1.62-3.6 3.6-3.6s3.6 1.62 3.6 3.6-1.62 3.6-3.6 3.6-3.6-1.62-3.6-3.6zM514.5027 19.044238c.295937.063415.603412.107675.932395.133567.319013.025107.639596.030275.942594.003967l1.415857 2.147708c.125446.19043.39069.261459.598705.16749l3.460407-1.653597c.228737-.10237.318136-.346107.265613-.57092l-.769524-2.457954c.418058-.468644.778655-.971903 1.064206-1.541254l2.560415-.159604c.242399-.021047.427567-.207092.446397-.446352l.301283-3.828163c.01883-.23926-.135739-.442012-.37186-.50072l-2.503925-.558176c-.19297-.607011-.479584-1.171238-.809999-1.688757l1.144558-2.307312c.097014-.213045.036876-.468551-.17303-.605442l-3.15991-2.164597c-.199937-.136106-.462274-.116629-.617534.07177l-1.734402 1.899777c-.295152-.073383-.620996-.139151-.93004-.163474-.309045-.024322-.639597-.030275-.942595-.003967l-1.415857-2.147708c-.125446-.19043-.39069-.261459-.598705-.16749l-3.460407 1.653597c-.228737.10237-.318136.346107-.265613.57092l.769524 2.457954c-.418058.468644-.778655.971903-1.064206 1.541254l-2.560415.159604c-.243184.031016-.427567.207092-.446397.446352l-.301283 3.828163c-.01883.23926.134954.451982.37186.50072l2.503925.558176c.19297.607011.469615 1.170453.809999 1.688757l-1.144558 2.307312c-.097014.213045-.036876.468551.17303.605442l3.159125 2.174566c.209907.13689.463059.10666.617535-.07177l1.732832-1.879839zm-2.091602-7.32669c.155349-1.973897 1.897458-3.4618 3.871355-3.30645 1.973896.155349 3.461798 1.897458 3.30645 3.871355-.15535 1.973896-1.89746 3.461798-3.871356 3.30645-1.973896-.15535-3.461798-1.89746-3.30645-3.871356zM537.95463 18.905046c.29005.086438.593105.154687.919042.20631.31606.05006.63525.080364.939377.07791l1.242986 2.252174c.110118.199685.368972.291307.583718.213948l3.57948-1.377c.236063-.084107.34431-.320078.309587-.54832l-.574303-2.510752c.45354-.4344.85251-.907815 1.181851-1.453007l2.565045.041776c.243303-.001964.442497-.172907.48004-.409953l.60071-3.792723c.037544-.237045-.100641-.4513-.331429-.528351l-2.452412-.752912c-.144749-.62028-.386211-1.205255-.675003-1.747103l1.32206-2.210398c.11343-.204777.073523-.464214-.124996-.617152l-2.980335-2.405847c-.188643-.151374-.4517-.15254-.621262.023097l-1.87811 1.757841c-.288485-.096314-.608164-.187445-.914348-.23594-.306183-.048495-.63525-.080364-.939377-.07791l-1.242986-2.252174c-.110118-.199685-.368972-.291307-.583718-.213948l-3.57948 1.377c-.236063.084107-.34431.320078-.309587.54832l.574303 2.510752c-.45354.4344-.85251.907815-1.181851 1.453007l-2.565045-.041776c-.244867.01184-.442497.172907-.48004.409953l-.60071 3.792723c-.037544.237045.099077.461176.331429.528351l2.452412.752912c.144749.62028.376334 1.20369.675003 1.747103l-1.32206 2.210398c-.11343.204777-.073523.464214.124996.617152l2.978771 2.415724c.19852.152938.453263.142662.621262-.023098l1.87498-1.738087zm-1.510308-7.46821c.30974-1.955623 2.16322-3.302254 4.118842-2.992514 1.955623.30974 3.302254 2.16322 2.992514 4.118842-.30974 1.955623-2.16322 3.302254-4.118842 2.992514-1.955623-.30974-3.302254-2.16322-2.992514-4.118842zM561.419172 18.723283c.282374.108928.57914.200743.900021.27778.311159.074703.626986.129958.93037.151373l1.06245 2.342755c.094111.207709.344979.319357.565132.259086l3.676483-1.091912c.241935-.065326.368362-.292078.351654-.52234l-.37554-2.548072c.486223-.397475.921107-.838129 1.292209-1.3558l2.55386.242898c.242706.017132.454698-.137656.510725-.371025l.89643-3.7339c.056027-.23337-.064921-.457806-.288952-.552727l-2.38578-.943005c-.095635-.629725-.290457-1.231841-.535846-1.794678l1.49141-2.099856c.129148-.195246.10972-.457014-.076189-.625056l-2.782387-2.632265c-.176184-.165708-.438338-.18751-.62116-.025718l-2.010238 1.605068c-.280038-.118653-.591583-.234584-.893017-.306952-.301435-.072368-.626986-.129958-.93037-.151373l-1.06245-2.342755c-.094111-.207709-.344979-.319357-.565132-.259086l-3.676483 1.091912c-.241935.065326-.368362.292078-.351654.52234l.37554 2.548072c-.486223.397475-.921107.838129-1.292209 1.3558l-2.55386-.242898c-.24504-.007408-.454698.137656-.510725.371025l-.89643 3.7339c-.056027.23337.062587.46753.288952.552727l2.38578.943005c.095635.629725.280733 1.229507.535846 1.794678l-1.49141 2.099856c-.129148.195246-.10972.457014.076189.625056l2.780053 2.64199c.185908.168042.440672.177784.621159.025716l2.00557-1.58562zm-.919704-7.563686c.462222-1.925293 2.415643-3.12235 4.340935-2.660129 1.925293.462222 3.12235 2.415643 2.660129 4.340935-.462222 1.925293-2.415643 3.12235-4.340935 2.660129-1.925293-.462222-3.12235-2.415643-2.660129-4.340935zM584.899626 18.500068c.272956.130747.561603.245563.875452.347539.304338.098885.614856.17875.915624.223902l.875365 2.418892c.077525.214452.318859.34544.543062.302627l3.75082-.800092c.246315-.046143.390143-.262276.391553-.49314l-.174464-2.569681c.51591-.358102.984027-.763277 1.3946-1.250236l2.52693.442523c.240615.036122.464098-.101557.538262-.32981l1.186625-3.652057c.074164-.228254-.028802-.461488-.244695-.573694l-2.304437-1.127283c-.045934-.635288-.192913-1.250834-.393386-1.831188l1.651565-1.976369c.144068-.18451.145238-.446996-.026913-.629107l-2.567285-2.842454c-.16264-.17902-.422275-.221323-.617226-.074374l-2.129974 1.442398c-.269866-.140258-.571354-.280276-.866182-.37607-.294827-.095796-.614856-.17875-.915624-.223903l-.875365-2.418892c-.077525-.214452-.318859-.34544-.543062-.302627l-3.75082.800092c-.246315.046143-.390143.262276-.391553.49314l.174464 2.569681c-.51591.358102-.984027.763277-1.3946 1.250236l-2.52693-.442523c-.243705-.026611-.464098.101557-.538262.32981l-1.186625 3.652057c-.074164.228254.025712.470998.244695.573694l2.304437 1.127283c.045934.635288.183403 1.247744.393386 1.831188l-1.651565 1.976369c-.144068.18451-.145238.446996.026913.629107l2.564195 2.851965c.17215.18211.425365.211812.617226.074373l2.123794-1.423376zm-.32343-7.61253c.611854-1.883091 2.653173-2.923195 4.536265-2.311341 1.883092.611853 2.923196 2.653172 2.311342 4.536264-.611853 1.883092-2.653172 2.923196-4.536264 2.311342-1.883092-.611853-2.923196-2.653172-2.311342-4.536264zM608.399194 18.236777c.261856.15176.540605.28887.845485.415156.295642.122458.598937.22644.895235.29505l.682882 2.480116c.06046.219874.290774.369392.517645.344302l3.802032-.50334c.249175-.026675.409518-.230857.429037-.460898l.027689-2.575448c.542416-.31652 1.04088-.683718 1.488394-1.136963l2.48442.63942c.237038.054888.470634-.064831.562478-.286562l1.469505-3.547698c.091844-.22173.007494-.462324-.19893-.591123l-2.208888-1.304613c.004052-.636933-.094179-1.262113-.2485-1.856407l1.801538-1.840696c.158101-.172639.179862-.434224.02253-.62928l-2.336354-3.035118c-.148093-.19123-.40361-.253772-.609489-.122572l-2.236577 1.270836c-.25803-.161-.547603-.32424-.834005-.442872-.286403-.118631-.598937-.22644-.895235-.29505l-.682882-2.480116c-.06046-.219874-.290774-.369392-.517645-.344302l-3.802032.50334c-.249175.026675-.409518.230857-.429037.460898l-.027689 2.575448c-.542416.31652-1.04088.683718-1.488394 1.136963l-2.48442-.63942c-.240865-.04565-.470634.064831-.562478.286562l-1.469505 3.547698c-.091844.22173-.01132.471563.19893.591123l2.208888 1.304613c-.004052.636933.08494 1.258286.2485 1.856407l-1.801538 1.840696c-.158101.172639-.179862.434224-.02253.62928l2.332528 3.044357c.157331.195056.407435.244533.609488.122571l2.228924-1.252358zm.27484-7.614437c.757713-1.829282 2.874345-2.70602 4.703626-1.948306 1.829282.757713 2.70602 2.874345 1.948306 4.703626-.757713 1.829282-2.874345 2.70602-4.703626 1.948306-1.829282-.757713-2.70602-2.874345-1.948306-4.703626zM631.920962 17.935036c.249142.171837.516274.330394.810306.480211.285122.145277.579324.272734.869326.36438l.48619 2.526049c.043022.22394.260894.391067.489035.383855l3.829803-.203484c.2505-.007043.426368-.198015.463876-.425816l.22967-2.565337c.565579-.272987 1.091316-.599943 1.573012-1.01668l2.426593.832374c.232.073318.47427-.027705.583228-.241547l1.743323-3.421465c.108958-.213841.043745-.46031-.151937-.604909l-2.09972-1.473898c.054013-.634652.005136-1.265612-.102081-1.870182l1.940403-1.693674c.171159-.159703.213376-.418774.071833-.625572l-2.09102-3.209071c-.132632-.202259-.382453-.284656-.597992-.170014l-2.329391 1.091439c-.244603-.180748-.520475-.366205-.796687-.506942s-.579324-.272734-.869326-.36438l-.48619-2.526049c-.043022-.22394-.260894-.391067-.489035-.383855l-3.829803.203484c-.2505.007043-.426368.198015-.463876.425816l-.22967 2.565337c-.565579.272987-1.091316.599943-1.573012 1.01668l-2.426593-.832374c-.23654-.064408-.47427.027705-.583228.241547l-1.743323 3.421465c-.108958.213841-.048285.469221.151937.604909l2.09972 1.473898c-.054013.634652-.014046 1.261072.102081 1.870182l-1.940403 1.693674c-.171159.159703-.213376.418774-.071833.625572l2.08648 3.217981c.141542.206799.386993.275746.597992.170014l2.320312-1.073618zm.871415-7.569402c.8989-1.764193 3.077796-2.472159 4.841989-1.573257 1.764193.8989 2.472159 3.077796 1.573257 4.841989-.8989 1.764193-3.077796 2.472159-4.841989 1.573257-1.764193-.8989-2.472159-3.077796-1.573257-4.841989zM655.467878 17.596702c.234893.190855.488761.369883.770132.542307.272845.1672.55614.317346.838057.431464l.2865 2.556407c.02532.226625.229407.410332.45741.421041l3.833963.097626c.25028.012633.44059-.163952.495855-.388108l.430237-2.539408c.585252-.22777 1.135021-.51247 1.64793-.890129l2.353805 1.020196c.225533.091294.474982.009591.600381-.195043l2.006395-3.274138c.1254-.204634.079725-.45546-.104008-.614965l-1.977607-1.634097c.10364-.628457.104419-1.261308.044966-1.872426l2.067306-1.536211c.183161-.145781.245575-.400741.120694-.618007L667.5071 5.739973c-.116354-.212042-.35894-.313786-.58281-.216408l-2.407843.905312c-.229668-.199381-.490139-.405912-.754457-.567886-.264319-.161975-.55614-.317346-.838057-.431464l-.2865-2.556407c-.02532-.226625-.229407-.410332-.45741-.421041l-3.833963-.097626c-.25028-.012633-.44059.163952-.495855.388108l-.430237 2.539408c-.585252.22777-1.135021.51247-1.64793.890129l-2.353805-1.020196c-.230758-.082768-.474982-.009591-.600381.195043l-2.006395 3.274138c-.1254.204634-.08495.463986.104008.614965l1.977607 1.634097c-.10364.628457-.112945 1.256083-.044966 1.872426l-2.067306 1.536211c-.183161.145781-.245575.400741-.120694.618007l1.827569 3.371765c.12488.217266.364166.305259.58281.216407l2.397393-.888259zm1.462617-7.477697c1.034548-1.688227 3.262272-2.223057 4.9505-1.18851 1.688227 1.034548 2.223057 3.262272 1.18851 4.9505-1.034548 1.688227-3.262272 2.223057-4.9505 1.18851-1.688227-1.034548-2.223057-3.262272-1.18851-4.9505zM679.042737 17.223863c.219194.208696.458234.40709.72521.60106.258885.18809.529526.360002.80162.495886l.085043 2.571006c.00746.227912.196506.427065.422966.45563l3.814484.398135c.248518.03223.452096-.128879.524777-.348007l.62815-2.497825c.60132-.18115 1.171731-.421838 1.712689-.75809l2.266506 1.20173c.217675.108707.472765.046827.613833-.147337l2.257096-3.106625c.141068-.194164.115215-.447801-.055438-.62123l-1.8433-1.78422c.152629-.61839.203057-1.249228.191736-1.863126l2.181463-1.369277c.194034-.130961.276259-.380238.16881-.606633l-1.563267-3.49667c-.09936-.220516-.333216-.34098-.564035-.261466l-2.47145.713603c-.213317-.216786-.45678-.443116-.707576-.62533-.250795-.182213-.529527-.360002-.801621-.495886l-.085043-2.571006c-.00746-.227912-.196506-.427065-.422966-.45563l-3.814484-.398135c-.248518-.03223-.452096.128879-.524777.348007l-.62815 2.497825c-.60132.18115-1.171731.421838-1.712689.75809l-2.266506-1.20173c-.223553-.100617-.472765-.046827-.613833.147337l-2.257096 3.106625c-.141068.194164-.121092.455891.055438.62123l1.8433 1.78422c-.152629.61839-.211147 1.24335-.191736 1.863126l-2.181463 1.369277c-.194034.130961-.276259.380238-.16881.606633l1.55739 3.50476c.107449.226394.339093.33289.564034.261467l2.459695-.697424zm2.044802-7.33989c1.163815-1.601854 3.426634-1.960249 5.028488-.796434 1.601854 1.163815 1.960249 3.426634.796434 5.028488-1.163815 1.601854-3.426634 1.960249-5.028488.796434-1.601854-1.163815-1.960249-3.426634-.796434-5.028488zM702.64816 16.818817c.202143.225251.42488.441788.675814.656106.24333.207823.499649.400439.760243.557253l-.116938 2.569752c-.010444.227796.162393.441167.385914.487412l3.771488.696188c.245223.05163.460813-.09301.550464-.305761l.82219-2.44084c.613679-.133413 1.201216-.328605 1.766888-.621377l2.165233 1.375852c.208475.125451.467633.083776.623501-.098721l2.49388-2.91996c.155868-.182497.149994-.43738-.006525-.623664l-1.69763-1.923344c.200677-.604507.300445-1.229444.337324-1.842339l2.28217-1.1939c.203712-.115333.305241-.35739.215886-.591518l-1.284102-3.608543c-.081752-.227633-.305435-.366073-.541782-.304914l-2.51982.517496c-.19565-.232855-.420606-.47759-.656332-.678918-.235726-.201329-.499649-.400439-.760243-.557253l.116938-2.569752c.010444-.227796-.162393-.441167-.385914-.487412l-3.771488-.696188c-.245223-.05163-.460813.09301-.550464.305761l-.82219 2.44084c-.613679.133413-1.201216.328605-1.766888.621377l-2.165233-1.375852c-.21497-.117847-.467633-.083776-.623501.098721l-2.49388 2.91996c-.155868.182497-.156489.444984.006525.623664l1.69763 1.923344c-.200677.604507-.308049 1.22295-.337324 1.842339l-2.28217 1.1939c-.203712.115333-.305241.35739-.215886.591518l1.277608 3.616147c.089355.234127.31193.358469.541781.304915l2.506832-.502289zm2.614379-7.15683c1.285907-1.505604 3.56987-1.685356 5.075474-.399448 1.505604 1.285907 1.685356 3.56987.399448 5.075474-1.285907 1.505604-3.56987 1.685356-5.075474.399448-1.505604-1.285907-1.685356-3.56987-.399448-5.075474zM726.286577 16.384062c.183848.240416.388909.473762.622254.707107.226274.226274.46669.438406.714178.615183l-.318198 2.552655c-.028284.226274.12728.452549.346482.516188l3.70524.98995c.240416.07071.46669-.056569.572756-.26163l1.011163-2.368808c.622254-.084852 1.223295-.233345 1.810193-.480832l2.05061 1.541493c.19799.141421.45962.120208.629325-.049498l2.71529-2.71529c.169706-.169706.183848-.424264.042427-.622254l-1.541493-2.05061c.247487-.586898.39598-1.202081.480832-1.810193l2.368808-1.011163c.212132-.098995.33234-.33234.26163-.572756l-.997021-3.698169c-.06364-.233345-.275772-.388908-.516188-.346482l-2.552655.318198c-.176777-.247487-.381838-.509117-.601041-.72832-.219203-.219203-.46669-.438406-.714178-.615183l.318198-2.552655c.028284-.226274-.12728-.452549-.346482-.516188l-3.70524-.98995c-.240416-.07071-.46669.056569-.572756.26163l-1.011163 2.368808c-.622254.084852-1.223295.233345-1.810193.480832l-2.05061-1.541493c-.205061-.13435-.45962-.120208-.629325.049498l-2.71529 2.71529c-.169706.169706-.190919.431335-.042427.622254l1.541493 2.05061c-.247487.586898-.40305 1.19501-.480832 1.810193l-2.368808 1.011163c-.212132.098995-.33234.33234-.26163.572756l.98995 3.70524c.07071.240416.282843.381837.516188.346482l2.538513-.304056zm3.167839-6.929646c1.400071-1.400072 3.691097-1.400072 5.091168 0 1.400072 1.400071 1.400072 3.691097 0 5.091168-1.400071 1.400072-3.691097 1.400072-5.091168 0-1.400072-1.400071-1.400072-3.691097 0-5.091168zM749.96022 15.922277c.164418.2541.35054.502815.564857.753749.207823.24333.430855.47367.66371.66932l-.517497 2.519821c-.04595.223358.09138.46114.304915.541782l3.616147 1.277607c.234127.089356.46969-.019778.591518-.215885l1.1939-2.28217c.626993-.03577 1.237832-.136648 1.84234-.337325l1.923343 1.69763c.186284.15652.448771.1559.631269.000032l2.919959-2.493881c.182497-.155868.216568-.408532.091117-.617007l-1.375852-2.165232c.292772-.565672.489073-1.167308.621376-1.766888l2.44084-.822191c.219246-.082046.357392-.30524.305762-.550464l-.703792-3.764993c-.045136-.23762-.244408-.409347-.487412-.385914l-2.569752.116938c-.156815-.260594-.340716-.537506-.542045-.773232-.201329-.235726-.430855-.47367-.66371-.66932l.517497-2.519821c.04595-.223358-.09138-.46114-.304915-.541782l-3.616147-1.277607c-.234127-.089356-.46969.019778-.591518.215885l-1.1939 2.28217c-.626993.03577-1.237832.136648-1.84234.337325l-1.923343-1.69763c-.193888-.150025-.448771-.1559-.631269-.000032l-2.919959 2.493881c-.182497.155868-.224172.415026-.091117.617007l1.375852 2.165232c-.292772.565672-.495568 1.159704-.621376 1.766888l-2.44084.822191c-.219246.082046-.357392.30524-.305762.550464l.696188 3.771488c.05163.245223.252012.402852.487412.385914l2.554544-.10395zm3.701767-6.659738c1.505604-1.285908 3.789567-1.106156 5.075474.399448 1.285908 1.505604 1.106156 3.789567-.399448 5.075474-1.505604 1.285908-3.789567 1.106156-5.075474-.399448-1.285908-1.505604-1.106156-3.789567.399448-5.075474zM773.6711 15.43631c.143975.266217.310009.528768.503978.795744.18809.258885.392363.506015.609149.71933l-.713604 2.471452c-.063333.219063.054918.466887.261467.564034l3.50476 1.55739c.226395.107449.469794.017133.606633-.16881l1.369276-2.181464c.627867.013534 1.244738-.039106 1.863126-.191736l1.78422 1.8433c.17343.170653.435157.19063.62932.04956l3.106626-2.257095c.194164-.141068.247954-.39028.139246-.607956l-1.201728-2.266505c.336251-.540958.579151-1.125337.75809-1.712689l2.497824-.62815c.225006-.064591.380238-.276259.348007-.524777l-.406225-3.808606c-.026353-.240428-.211538-.427261-.45563-.422966l-2.571006-.085043c-.135885-.272095-.297493-.562582-.479707-.813377-.182213-.250795-.392363-.506015-.609149-.71933l.713604-2.471452c.063333-.219063-.054918-.466887-.261467-.564034l-3.50476-1.55739c-.226395-.107449-.469794-.017133-.606633.16881l-1.369276 2.181464c-.627867-.013534-1.244738.039106-1.863126.191736l-1.78422-1.8433c-.18152-.164776-.435157-.19063-.62932-.04956l-3.106626 2.257095c-.194164.141068-.256044.396158-.139246.607956l1.201728 2.266505c-.336251.540958-.58503 1.117247-.75809 1.712689l-2.497824.62815c-.225006.064591-.380238.276259-.348007.524777l.398135 3.814484c.03223.248518.219628.421383.45563.422966l2.554826.096799zm4.212873-6.348771c1.601854-1.163815 3.864673-.80542 5.028488.796434 1.163815 1.601854.80542 3.864673-.796434 5.028488-1.601854 1.163815-3.864673.80542-5.028488-.796434-1.163815-1.601854-.80542-3.864673.796434-5.028488zM797.421 14.929158c.122645.276692.267566.55146.43999.832832.1672.272845.351453.53524.550834.764907l-.905312 2.407843c-.080325.21342.018118.469757.216408.58281l3.371764 1.827568c.217267.124882.467002.053942.618008-.120693l1.53621-2.067306c.62487.062754 1.24397.058675 1.872427-.044966l1.634096 1.977607c.159506.183733.418858.224182.623492.098783l3.274138-2.006395c.204634-.1254.27781-.369623.186517-.595156l-1.020196-2.353806c.377658-.512908.66566-1.076428.890128-1.64793l2.539409-.430236c.22938-.046739.40074-.245575.388108-.495855l-.106153-3.828738c-.007407-.241754-.177363-.44254-.42104-.45741l-2.556408-.2865c-.114117-.281917-.252436-.584188-.41441-.848507-.161975-.264318-.351453-.53524-.550834-.764907l.905312-2.407843c.080325-.21342-.018118-.469757-.216408-.58281l-3.371764-1.827568c-.217267-.124882-.467002-.053942-.618008.120693l-1.53621 2.067306c-.62487-.062754-1.24397-.058675-1.872427.044966l-1.634096-1.977607c-.168032-.178508-.418858-.224182-.623492-.098783l-3.274138 2.006395c-.204634.1254-.286337.374848-.186517.595156l1.020196 2.353806c-.377658.512908-.670884 1.067902-.890128 1.64793l-2.539409.430236c-.22938.046739-.40074.245575-.388108.495855l.097626 3.833963c.012633.25028.18589.437316.421041.45741l2.539355.29695zm4.698005-5.998663c1.688228-1.034547 3.915952-.499717 4.9505 1.18851 1.034547 1.688228.499717 3.915952-1.18851 4.9505-1.688228 1.034547-3.915952.499717-4.9505-1.18851-1.034547-1.688228-.499717-3.915952 1.18851-4.9505zM821.211462 14.403946c.100557.285462.223474.570753.373291.864786.145277.285122.308374.561164.489122.805766l-1.091439 2.329391c-.096822.20646-.018795.46973.170014.597993l3.21798 2.08648c.2068.141543.46133.090416.625572-.071833l1.693675-1.940403c.61802.111587 1.23553.156094 1.870182.102081l1.473898 2.09972c.144598.195682.399978.256355.61382.147397l3.421464-1.743323c.213842-.108958.305955-.346687.232637-.578688l-.832373-2.426593c.416736-.481696.748063-1.020883 1.01668-1.573011l2.565336-.229671c.23234-.028598.418773-.213376.425816-.463876l.194574-3.825264c.011582-.24159-.142095-.455092-.383855-.489035l-2.526049-.48619c-.091646-.29-.205823-.602193-.34656-.878405-.140737-.276212-.308374-.561164-.489122-.805766l1.091439-2.329391c.096822-.20646.018795-.46973-.170014-.597993l-3.21798-2.08648c-.2068-.141543-.46133-.090416-.625572.071833l-1.693675 1.940403c-.61802-.111587-1.23553-.156094-1.870182-.102081l-1.473898-2.09972c-.153508-.191142-.399978-.256355-.61382-.147397l-3.421464 1.743323c-.213842.108958-.314865.351227-.232637.578688l.832373 2.426593c-.416736.481696-.752602 1.011973-1.01668 1.573011l-2.565336.229671c-.23234.028598-.418773.213376-.425816.463876l-.203484 3.829804c-.007043.2505.151005.450552.383855.489035l2.508228.495269zm5.154172-5.61157c1.764193-.8989 3.943088-.190935 4.84199 1.573258.8989 1.764193.190935 3.943088-1.573258 4.84199-1.764193.8989-3.943088.190935-4.84199-1.573258-.8989-1.764193-.190935-3.943088 1.573258-4.84199zM845.043778 13.863913c.07785.292471.178004.586527.30429.891408.122458.295641.263394.583629.424393.841659l-1.270835 2.236577c-.112723.198226-.055592.466807.122571.609488l3.044358 2.332528c.195056.157332.452813.126332.62928-.02253l1.840695-1.801537c.60736.159732 1.219474.252551 1.856407.2485l1.304613 2.208887c.1288.206424.378631.286947.600362.195103l3.547698-1.469505c.22173-.091844.332212-.321613.277323-.558651l-.63942-2.48442c.453245-.447515.825855-.959044 1.136963-1.488394l2.575448-.02769c.233868-.01028.434224-.17986.460899-.429036l.4941-3.798206c.030503-.239936-.10595-.464838-.344302-.517644l-2.480115-.682882c-.068611-.296298-.157942-.616486-.276573-.902889-.118632-.286402-.263395-.583629-.424394-.841659l1.270835-2.236577c.112723-.198226.055592-.466807-.122571-.609488l-3.044358-2.332528c-.195056-.157332-.452813-.126332-.62928.02253l-1.840695 1.801537c-.60736-.159732-1.219474-.252551-1.856407-.2485l-1.304613-2.208887c-.138038-.202597-.378631-.286947-.600362-.195103L846.55239 3.86551c-.22173.091844-.34145.32544-.277323.558651l.63942 2.48442c-.453245.447515-.829682.949805-1.136963 1.488394l-2.575448.02769c-.233868.01028-.434224.17986-.460899.429036l-.50334 3.802032c-.026675.249176.11519.461012.344303.517645l2.461638.690536zm5.578562-5.18988c1.829281-.757713 3.945913.119025 4.703626 1.948307.757714 1.829281-.119024 3.945913-1.948306 4.703626-1.829281.757714-3.945913-.119024-4.703626-1.948306-.757714-1.829281.119024-3.945913 1.948306-4.703626zM868.91898 13.312388c.054663.297678.131437.598686.233413.912534.098886.304338.216792.602496.35705.872362l-1.442398 2.129974c-.127928.188771-.092046.461007.074374.617227l2.851965 2.564195c.18211.17215.441505.16147.629107.026912l1.976368-1.651565c.592955.206893 1.1959.347452 1.831188.393386l1.127284 2.304437c.112206.215893.35495.31577.583204.241605l3.652057-1.186625c.228253-.074164.356421-.294557.3203-.535171l-.442524-2.52693c.48696-.410573.898555-.891291 1.250236-1.3946l2.569681.174463c.233954.0081.446997-.145238.49314-.391552l.790582-3.74773c.049233-.236804-.069154-.471718-.302628-.543063l-2.418891-.875365c-.045152-.300768-.109086-.626977-.204881-.921804-.095795-.294828-.216792-.602496-.35705-.872362l1.442398-2.129974c.127928-.188771.092046-.461007-.074374-.617227l-2.851965-2.564195c-.18211-.17215-.441505-.16147-.629107-.026912l-1.976368 1.651565c-.592955-.206893-1.1959-.347452-1.831188-.393386l-1.127284-2.304437c-.121716-.212803-.35495-.31577-.583204-.241605l-3.652057 1.186625c-.228253.074164-.365932.297647-.3203.535171l.442524 2.52693c-.48696.410573-.901645.88178-1.250236 1.3946l-2.569681-.174463c-.233954-.0081-.446997.145238-.49314.391552l-.800092 3.75082c-.046143.246315.078664.468628.302627.543063l2.39987.881545zm5.968559-4.736191c1.883092-.611854 3.92441.42825 4.536264 2.311342.611854 1.883092-.42825 3.92441-2.311342 4.536264-1.883092.611854-3.92441-.42825-4.536264-2.311342-.611854-1.883092.42825-3.92441 2.311342-4.536264zM892.83784 12.752772c.031139.301049.08406.607153.161097.928035.074702.311158.168852.617647.287504.897686l-1.605067 2.010239c-.142344.178152-.127933.452364.025717.621159l2.641989 2.780053c.168042.185908.427476.195612.625056.076188l2.099857-1.49141c.574894.252779 1.164953.440211 1.794678.535847l.943004 2.38578c.094922.22403.329081.342644.56245.286617l3.7339-.89643c.23337-.056027.378434-.265684.361302-.50839l-.242898-2.55386c.517671-.371102.965714-.818045 1.3558-1.29221l2.548072.37554c.232597.026432.457014-.109719.52234-.351653l1.082188-3.67415c.067661-.23221-.03193-.475689-.259086-.565131l-2.342754-1.06245c-.021415-.303384-.059558-.633604-.131926-.935039-.072368-.301434-.168852-.617647-.287504-.897686l1.605067-2.010239c.142344-.178152.127933-.452364-.025717-.621159l-2.641989-2.780053c-.168042-.185908-.427476-.195612-.625056-.076188l-2.099857 1.49141c-.574894-.252779-1.164953-.440211-1.794678-.535847l-.943004-2.38578c-.104645-.221696-.329081-.342644-.56245-.286617l-3.7339.89643c-.23337.056027-.388158.268019-.361302.50839l.242898 2.55386c-.517671.371102-.968049.808321-1.3558 1.29221l-2.548072-.37554c-.232597-.026432-.457014.109719-.52234.351653l-1.091912 3.676484c-.065327.241934.041653.473355.259086.565132l2.323307 1.06712zm6.321757-4.253304c1.925292-.462222 3.878713.734836 4.340935 2.660129.462222 1.925292-.734836 3.878713-2.660129 4.340935-1.925292.462222-3.878713-.734836-4.340935-2.660129-.462222-1.925292.734836-3.878713 2.660129-4.340935zM916.800857 12.188515c.007423.302564.036164.611876.087787.937813.050059.31606.119872.628992.216187.917477l-1.757841 1.87811c-.155883.166434-.16303.440931-.023098.621261l2.415724 2.978771c.152938.19852.41081.22855.617152.124996l2.210398-1.32206c.55329.297105 1.126823.530255 1.747103.675004l.752912 2.452412c.077052.230787.301183.367408.538228.329863l3.792723-.600708c.237046-.037544.398113-.235174.400076-.478477l-.041776-2.565044c.545192-.329342 1.02692-.739754 1.453007-1.181851l2.510752.574302c.229806.0446.464214-.073524.54832-.309588l1.367123-3.577915c.085671-.226186.00549-.476728-.213948-.583717l-2.252174-1.242986c.002455-.304128-.009661-.636323-.058156-.942506-.048495-.306184-.119872-.628992-.216187-.917477l1.757841-1.87811c.155883-.166434.16303-.440931.023098-.621261l-2.415724-2.978771c-.152938-.19852-.41081-.22855-.617152-.124996l-2.210398 1.32206c-.55329-.297105-1.126823-.530255-1.747103-.675004l-.752912-2.452412c-.086928-.229223-.301183-.367408-.538228-.329863l-3.792723.600708c-.237046.037544-.40799.236738-.400076.478477l.041776 2.565044c-.545192.329342-1.028485.729877-1.453007 1.181851l-2.510752-.574302c-.229806-.0446-.464214.073524-.54832.309588l-1.377 3.579479c-.084107.236064.004386.475164.213948.583718l2.23242 1.246114zm6.635979-3.744193c1.955623-.30974 3.809102 1.036891 4.118842 2.992514.30974 1.955623-1.036891 3.809102-2.992514 4.118842-1.955623.30974-3.809102-1.036891-4.118842-2.992514-.30974-1.955623 1.036891-3.809102 2.992514-4.118842zM940.808259 11.623096c-.01634.302213-.011955.612827.013936.94181.025107.319013.070152.636457.143536.93161l-1.899777 1.734401c-.16846.153691-.197123.426782-.07177.617535l2.174566 3.159124c.13689.209906.391612.260076.605442.17303l2.307312-1.144557c.528273.339599 1.081746.61703 1.688757.809998l.558176 2.503925c.058707.236122.271429.389906.510689.371076l3.828163-.301283c.23926-.01883.415336-.203213.436383-.445612l.159604-2.560415c.56935-.285551 1.081795-.656902 1.541254-1.064206l2.457953.769523c.225599.062493.468551-.036876.57092-.265613l1.643628-3.459622c.103154-.218768.042878-.474828-.16749-.598704l-2.147707-1.415858c.026308-.302998.040293-.63512.01597-.944163-.024322-.309045-.070151-.636458-.143535-.93161l1.899777-1.734402c.16846-.153691.197123-.426782.07177-.617535l-2.174566-3.159124c-.13689-.209906-.391612-.260076-.605442-.17303l-2.307312 1.144557c-.528273-.339599-1.081746-.61703-1.688757-.809998l-.558176-2.503925c-.068677-.235337-.271429-.389906-.510689-.371076l-3.828163.301283c-.23926.01883-.425305.203998-.436383.445612l-.159604 2.560415c-.56935.285551-1.08258.646933-1.541254 1.064206l-2.457953-.769523c-.225599-.062493-.468551.036876-.57092.265613l-1.653598 3.460407c-.102369.228736-.032908.474043.16749.598704l2.12777 1.417427zm6.909288-3.211998c1.973897-.15535 3.716006 1.332553 3.871355 3.30645.15535 1.973896-1.332553 3.716005-3.30645 3.871354-1.973896.15535-3.716005-1.332553-3.871354-3.30645-.15535-1.973896 1.332553-3.716005 3.30645-3.871354zM964.86 11.06c-.04.3-.06.61-.06.94 0 .32.02.64.07.94l-2.03 1.58c-.18.14-.23.41-.12.61l1.92 3.32c.12.22.37.29.59.22l2.39-.96c.5.38 1.03.7 1.62.94l.36 2.54c.04.24.24.41.48.41h3.84c.24 0 .43-.17.47-.41l.36-2.54c.59-.24 1.13-.57 1.62-.94l2.39.96c.22.08.47 0 .59-.22l1.91-3.32c.12-.21.08-.47-.12-.61l-2.03-1.58c.05-.3.09-.63.09-.94 0-.31-.02-.64-.07-.94l2.03-1.58c.18-.14.23-.41.12-.61l-1.92-3.32c-.12-.22-.37-.29-.59-.22l-2.39.96c-.5-.38-1.03-.7-1.62-.94l-.36-2.54c-.05-.24-.24-.41-.48-.41h-3.84c-.24 0-.44.17-.47.41l-.36 2.54c-.59.24-1.13.56-1.62.94l-2.39-.96c-.22-.08-.47 0-.59.22l-1.92 3.32c-.12.22-.07.47.12.61l2.01 1.58zM972 8.4c1.98 0 3.6 1.62 3.6 3.6s-1.62 3.6-3.6 3.6-3.6-1.62-3.6-3.6 1.62-3.6 3.6-3.6zM988.955762 10.5027c-.063415.295937-.107675.603412-.133567.932395-.025107.319013-.030275.639596-.003967.942594l-2.147708 1.415857c-.19043.125446-.261459.39069-.16749.598705l1.653597 3.460407c.10237.228737.346107.318136.57092.265613l2.457954-.769524c.468644.418058.971903.778655 1.541254 1.064206l.159604 2.560415c.021047.242399.207092.427567.446352.446397l3.828163.301283c.23926.01883.442012-.135739.50072-.37186l.558176-2.503925c.607011-.19297 1.171238-.479584 1.688757-.809999l2.307312 1.144558c.213045.097014.468551.036876.605442-.17303l2.164597-3.15991c.136106-.199937.116629-.462274-.07177-.617534l-1.899777-1.734402c.073383-.295152.139151-.620996.163474-.93004.024322-.309045.030275-.639597.003967-.942595l2.147708-1.415857c.19043-.125446.261459-.39069.16749-.598705l-1.653597-3.460407c-.10237-.228737-.346107-.318136-.57092-.265613l-2.457954.769524c-.468644-.418058-.971903-.778655-1.541254-1.064206l-.159604-2.560415c-.031016-.243184-.207092-.427567-.446352-.446397l-3.828163-.301283c-.23926-.01883-.451982.134954-.50072.37186l-.558176 2.503925c-.607011.19297-1.170453.469615-1.688757.809999l-2.307312-1.144558c-.213045-.097014-.468551-.036876-.605442.17303l-2.174566 3.159125c-.13689.209907-.10666.463059.07177.617535l1.879839 1.732832zm7.32669-2.091602c1.973897.155349 3.4618 1.897458 3.30645 3.871355-.155349 1.973896-1.897458 3.461798-3.871355 3.30645-1.973896-.15535-3.461798-1.89746-3.30645-3.871356.15535-1.973896 1.89746-3.461798 3.871356-3.30645zM1013.094954 9.95463c-.086438.29005-.154687.593105-.20631.919042-.05006.31606-.080364.63525-.07791.939377l-2.252174 1.242986c-.199685.110118-.291307.368972-.213948.583718l1.377 3.57948c.084107.236063.320078.34431.54832.309587l2.510752-.574303c.4344.45354.907815.85251 1.453007 1.181851l-.041776 2.565045c.001964.243303.172907.442497.409953.48004l3.792723.60071c.237045.037544.4513-.100641.528351-.331429l.752912-2.452412c.62028-.144749 1.205255-.386211 1.747103-.675003l2.210398 1.32206c.204777.11343.464214.073523.617152-.124996l2.405847-2.980335c.151374-.188643.15254-.4517-.023097-.621262l-1.757841-1.87811c.096314-.288485.187445-.608164.23594-.914348.048495-.306183.080364-.63525.07791-.939377l2.252174-1.242986c.199685-.110118.291307-.368972.213948-.583718l-1.377-3.57948c-.084107-.236063-.320078-.34431-.54832-.309587l-2.510752.574303c-.4344-.45354-.907815-.85251-1.453007-1.181851l.041776-2.565045c-.01184-.244867-.172907-.442497-.409953-.48004l-3.792723-.60071c-.237045-.037544-.461176.099077-.528351.331429l-.752912 2.452412c-.62028.144749-1.20369.376334-1.747103.675003l-2.210398-1.32206c-.204777-.11343-.464214-.073523-.617152.124996l-2.415724 2.978771c-.152938.19852-.142662.453263.023098.621262l1.738087 1.87498zm7.46821-1.510308c1.955623.30974 3.302254 2.16322 2.992514 4.118842-.30974 1.955623-2.16322 3.302254-4.118842 2.992514-1.955623-.30974-3.302254-2.16322-2.992514-4.118842.30974-1.955623 2.16322-3.302254 4.118842-2.992514zM1037.276717 9.419172c-.108928.282374-.200743.57914-.27778.900021-.074703.311159-.129958.626986-.151373.93037l-2.342755 1.06245c-.207709.094111-.319357.344979-.259086.565132l1.091912 3.676483c.065326.241935.292078.368362.52234.351654l2.548072-.37554c.397475.486223.838129.921107 1.3558 1.292209l-.242898 2.55386c-.017132.242706.137656.454698.371025.510725l3.7339.89643c.23337.056027.457806-.064921.552727-.288952l.943005-2.38578c.629725-.095635 1.231841-.290457 1.794678-.535846l2.099856 1.49141c.195246.129148.457014.10972.625056-.076189l2.632265-2.782387c.165708-.176184.18751-.438338.025718-.62116l-1.605068-2.010238c.118653-.280038.234584-.591583.306952-.893017.072368-.301435.129958-.626986.151373-.93037l2.342755-1.06245c.207709-.094111.319357-.344979.259086-.565132l-1.091912-3.676483c-.065326-.241935-.292078-.368362-.52234-.351654l-2.548072.37554c-.397475-.486223-.838129-.921107-1.3558-1.292209l.242898-2.55386c.007408-.24504-.137656-.454698-.371025-.510725l-3.7339-.89643c-.23337-.056027-.46753.062587-.552727.288952l-.943005 2.38578c-.629725.095635-1.229507.280733-1.794678.535846l-2.099856-1.49141c-.195246-.129148-.457014-.10972-.625056.076189l-2.64199 2.780053c-.168042.185908-.177784.440672-.025716.621159l1.58562 2.00557zm7.563686-.919704c1.925293.462222 3.12235 2.415643 2.660129 4.340935-.462222 1.925293-2.415643 3.12235-4.340935 2.660129-1.925293-.462222-3.12235-2.415643-2.660129-4.340935.462222-1.925293 2.415643-3.12235 4.340935-2.660129zM1061.499932 8.899626c-.130747.272956-.245563.561603-.347539.875452-.098885.304338-.17875.614856-.223902.915624l-2.418892.875365c-.214452.077525-.34544.318859-.302627.543062l.800092 3.75082c.046143.246315.262276.390143.49314.391553l2.569681-.174464c.358102.51591.763277.984027 1.250236 1.3946l-.442523 2.52693c-.036122.240615.101557.464098.32981.538262l3.652057 1.186625c.228254.074164.461488-.028802.573694-.244695l1.127283-2.304437c.635288-.045934 1.250834-.192913 1.831188-.393386l1.976369 1.651565c.18451.144068.446996.145238.629107-.026913l2.842454-2.567285c.17902-.16264.221323-.422275.074374-.617226l-1.442398-2.129974c.140258-.269866.280276-.571354.37607-.866182.095796-.294827.17875-.614856.223903-.915624l2.418892-.875365c.214452-.077525.34544-.318859.302627-.543062l-.800092-3.75082c-.046143-.246315-.262276-.390143-.49314-.391553l-2.569681.174464c-.358102-.51591-.763277-.984027-1.250236-1.3946l.442523-2.52693c.026611-.243705-.101557-.464098-.32981-.538262l-3.652057-1.186625c-.228254-.074164-.470998.025712-.573694.244695l-1.127283 2.304437c-.635288.045934-1.247744.183403-1.831188.393386l-1.976369-1.651565c-.18451-.144068-.446996-.145238-.629107.026913l-2.851965 2.564195c-.18211.17215-.211812.425365-.074373.617226l1.423376 2.123794zm7.61253-.32343c1.883091.611854 2.923195 2.653173 2.311341 4.536265-.611853 1.883092-2.653172 2.923196-4.536264 2.311342-1.883092-.611853-2.923196-2.653172-2.311342-4.536264.611853-1.883092 2.653172-2.923196 4.536264-2.311342zM1085.763223 8.399194c-.15176.261856-.28887.540605-.415156.845485-.122458.295642-.22644.598937-.29505.895235l-2.480116.682882c-.219874.06046-.369392.290774-.344302.517645l.50334 3.802032c.026675.249175.230857.409518.460898.429037l2.575448.027689c.31652.542416.683718 1.04088 1.136963 1.488394l-.63942 2.48442c-.054888.237038.064831.470634.286562.562478l3.547698 1.469505c.22173.091844.462324.007494.591123-.19893l1.304613-2.208888c.636933.004052 1.262113-.094179 1.856407-.2485l1.840696 1.801538c.172639.158101.434224.179862.62928.02253l3.035118-2.336354c.19123-.148093.253772-.40361.122572-.609489l-1.270836-2.236577c.161-.25803.32424-.547603.442872-.834005.118631-.286403.22644-.598937.29505-.895235l2.480116-.682882c.219874-.06046.369392-.290774.344302-.517645l-.50334-3.802032c-.026675-.249175-.230857-.409518-.460898-.429037l-2.575448-.027689c-.31652-.542416-.683718-1.04088-1.136963-1.488394l.63942-2.48442c.04565-.240865-.064831-.470634-.286562-.562478l-3.547698-1.469505c-.22173-.091844-.471563-.01132-.591123.19893l-1.304613 2.208888c-.636933-.004052-1.258286.08494-1.856407.2485l-1.840696-1.801538c-.172639-.158101-.434224-.179862-.62928-.02253l-3.044357 2.332528c-.195056.157331-.244533.407435-.122571.609488l1.252358 2.228924zm7.614437.27484c1.829282.757713 2.70602 2.874345 1.948306 4.703626-.757713 1.829282-2.874345 2.70602-4.703626 1.948306-1.829282-.757713-2.70602-2.874345-1.948306-4.703626.757713-1.829282 2.874345-2.70602 4.703626-1.948306zM1110.064964 7.920962c-.171837.249142-.330394.516274-.480211.810306-.145277.285122-.272734.579324-.36438.869326l-2.526049.48619c-.22394.043022-.391067.260894-.383855.489035l.203484 3.829803c.007043.2505.198015.426368.425816.463876l2.565337.22967c.272987.565579.599943 1.091316 1.01668 1.573012l-.832374 2.426593c-.073318.232.027705.47427.241547.583228l3.421465 1.743323c.213841.108958.46031.043745.604909-.151937l1.473898-2.09972c.634652.054013 1.265612.005136 1.870182-.102081l1.693674 1.940403c.159703.171159.418774.213376.625572.071833l3.209071-2.09102c.202259-.132632.284656-.382453.170014-.597992l-1.091439-2.329391c.180748-.244603.366205-.520475.506942-.796687s.272734-.579324.36438-.869326l2.526049-.48619c.22394-.043022.391067-.260894.383855-.489035l-.203484-3.829803c-.007043-.2505-.198015-.426368-.425816-.463876l-2.565337-.22967c-.272987-.565579-.599943-1.091316-1.01668-1.573012l.832374-2.426593c.064408-.23654-.027705-.47427-.241547-.583228l-3.421465-1.743323c-.213841-.108958-.469221-.048285-.604909.151937l-1.473898 2.09972c-.634652-.054013-1.261072-.014046-1.870182.102081l-1.693674-1.940403c-.159703-.171159-.418774-.213376-.625572-.071833l-3.217981 2.08648c-.206799.141542-.275746.386993-.170014.597992l1.073618 2.320312zm7.569402.871415c1.764193.8989 2.472159 3.077796 1.573257 4.841989-.8989 1.764193-3.077796 2.472159-4.841989 1.573257-1.764193-.8989-2.472159-3.077796-1.573257-4.841989.8989-1.764193 3.077796-2.472159 4.841989-1.573257zM1134.403298 7.467878c-.190855.234893-.369883.488761-.542307.770132-.1672.272845-.317346.55614-.431464.838057l-2.556407.2865c-.226625.02532-.410332.229407-.421041.45741l-.097626 3.833963c-.012633.25028.163952.44059.388108.495855l2.539408.430237c.22777.585252.51247 1.135021.890129 1.64793l-1.020196 2.353805c-.091294.225533-.009591.474982.195043.600381l3.274138 2.006395c.204634.1254.45546.079725.614965-.104008l1.634097-1.977607c.628457.10364 1.261308.104419 1.872426.044966l1.536211 2.067306c.145781.183161.400741.245575.618007.120694l3.363238-1.832794c.212042-.116354.313786-.35894.216408-.58281l-.905312-2.407843c.199381-.229668.405912-.490139.567886-.754457.161975-.264319.317346-.55614.431464-.838057l2.556407-.2865c.226625-.02532.410332-.229407.421041-.45741l.097626-3.833963c.012633-.25028-.163952-.44059-.388108-.495855l-2.539408-.430237c-.22777-.585252-.51247-1.135021-.890129-1.64793l1.020196-2.353805c.082768-.230758.009591-.474982-.195043-.600381l-3.274138-2.006395c-.204634-.1254-.463986-.08495-.614965.104008l-1.634097 1.977607c-.628457-.10364-1.256083-.112945-1.872426-.044966l-1.536211-2.067306c-.145781-.183161-.400741-.245575-.618007-.120694l-3.371765 1.827569c-.217266.12488-.305259.364166-.216407.58281l.888259 2.397393zm7.477697 1.462617c1.688227 1.034548 2.223057 3.262272 1.18851 4.9505-1.034548 1.688227-3.262272 2.223057-4.9505 1.18851-1.688227-1.034548-2.223057-3.262272-1.18851-4.9505 1.034548-1.688227 3.262272-2.223057 4.9505-1.18851zM1158.776137 7.042737c-.208696.219194-.40709.458234-.60106.72521-.18809.258885-.360002.529526-.495886.80162l-2.571006.085043c-.227912.00746-.427065.196506-.45563.422966l-.398135 3.814484c-.03223.248518.128879.452096.348007.524777l2.497825.62815c.18115.60132.421838 1.171731.75809 1.712689l-1.20173 2.266506c-.108707.217675-.046827.472765.147337.613833l3.106625 2.257096c.194164.141068.447801.115215.62123-.055438l1.78422-1.8433c.61839.152629 1.249228.203057 1.863126.191736l1.369277 2.181463c.130961.194034.380238.276259.606633.16881l3.49667-1.563267c.220516-.09936.34098-.333216.261466-.564035l-.713603-2.47145c.216786-.213317.443116-.45678.62533-.707576.182213-.250795.360002-.529527.495886-.801621l2.571006-.085043c.227912-.00746.427065-.196506.45563-.422966l.398135-3.814484c.03223-.248518-.128879-.452096-.348007-.524777l-2.497825-.62815c-.18115-.60132-.421838-1.171731-.75809-1.712689l1.20173-2.266506c.100617-.223553.046827-.472765-.147337-.613833l-3.106625-2.257096c-.194164-.141068-.455891-.121092-.62123.055438l-1.78422 1.8433c-.61839-.152629-1.24335-.211147-1.863126-.191736l-1.369277-2.181463c-.130961-.194034-.380238-.276259-.606633-.16881l-3.50476 1.55739c-.226394.107449-.33289.339093-.261467.564034l.697424 2.459695zm7.33989 2.044802c1.601854 1.163815 1.960249 3.426634.796434 5.028488-1.163815 1.601854-3.426634 1.960249-5.028488.796434-1.601854-1.163815-1.960249-3.426634-.796434-5.028488 1.163815-1.601854 3.426634-1.960249 5.028488-.796434zM1183.181183 6.64816c-.225251.202143-.441788.42488-.656106.675814-.207823.24333-.400439.499649-.557253.760243l-2.569752-.116938c-.227796-.010444-.441167.162393-.487412.385914l-.696188 3.771488c-.05163.245223.09301.460813.305761.550464l2.44084.82219c.133413.613679.328605 1.201216.621377 1.766888l-1.375852 2.165233c-.125451.208475-.083776.467633.098721.623501l2.91996 2.49388c.182497.155868.43738.149994.623664-.006525l1.923344-1.69763c.604507.200677 1.229444.300445 1.842339.337324l1.1939 2.28217c.115333.203712.35739.305241.591518.215886l3.608543-1.284102c.227633-.081752.366073-.305435.304914-.541782l-.517496-2.51982c.232855-.19565.47759-.420606.678918-.656332.201329-.235726.400439-.499649.557253-.760243l2.569752.116938c.227796.010444.441167-.162393.487412-.385914l.696188-3.771488c.05163-.245223-.09301-.460813-.305761-.550464l-2.44084-.82219c-.133413-.613679-.328605-1.201216-.621377-1.766888l1.375852-2.165233c.117847-.21497.083776-.467633-.098721-.623501l-2.91996-2.49388c-.182497-.155868-.444984-.156489-.623664.006525l-1.923344 1.69763c-.604507-.200677-1.22295-.308049-1.842339-.337324l-1.1939-2.28217c-.115333-.203712-.35739-.305241-.591518-.215886l-3.616147 1.277608c-.234127.089355-.358469.31193-.304915.541781l.502289 2.506832zm7.15683 2.614379c1.505604 1.285907 1.685356 3.56987.399448 5.075474-1.285907 1.505604-3.56987 1.685356-5.075474.399448-1.505604-1.285907-1.685356-3.56987-.399448-5.075474 1.285907-1.505604 3.56987-1.685356 5.075474-.399448zM1207.615938 6.286577c-.240416.183848-.473762.388909-.707107.622254-.226274.226274-.438406.46669-.615183.714178l-2.552655-.318198c-.226274-.028284-.452549.12728-.516188.346482l-.98995 3.70524c-.07071.240416.056569.46669.26163.572756l2.368808 1.011163c.084852.622254.233345 1.223295.480832 1.810193l-1.541493 2.05061c-.141421.19799-.120208.45962.049498.629325l2.71529 2.71529c.169706.169706.424264.183848.622254.042427l2.05061-1.541493c.586898.247487 1.202081.39598 1.810193.480832l1.011163 2.368808c.098995.212132.33234.33234.572756.26163l3.698169-.997021c.233345-.06364.388908-.275772.346482-.516188l-.318198-2.552655c.247487-.176777.509117-.381838.72832-.601041.219203-.219203.438406-.46669.615183-.714178l2.552655.318198c.226274.028284.452549-.12728.516188-.346482l.98995-3.70524c.07071-.240416-.056569-.46669-.26163-.572756l-2.368808-1.011163c-.084852-.622254-.233345-1.223295-.480832-1.810193l1.541493-2.05061c.13435-.205061.120208-.45962-.049498-.629325l-2.71529-2.71529c-.169706-.169706-.431335-.190919-.622254-.042427l-2.05061 1.541493c-.586898-.247487-1.19501-.40305-1.810193-.480832l-1.011163-2.368808c-.098995-.212132-.33234-.33234-.572756-.26163l-3.70524.98995c-.240416.07071-.381837.282843-.346482.516188l.304056 2.538513zm6.929646 3.167839c1.400072 1.400071 1.400072 3.691097 0 5.091168-1.400071 1.400072-3.691097 1.400072-5.091168 0-1.400072-1.400071-1.400072-3.691097 0-5.091168 1.400071-1.400072 3.691097-1.400072 5.091168 0zM1232.077723 5.96022c-.2541.164418-.502815.35054-.753749.564857-.24333.207823-.47367.430855-.66932.66371l-2.519821-.517497c-.223358-.04595-.46114.09138-.541782.304915l-1.277607 3.616147c-.089356.234127.019778.46969.215885.591518l2.28217 1.1939c.03577.626993.136648 1.237832.337325 1.84234l-1.69763 1.923343c-.15652.186284-.1559.448771-.000032.631269l2.493881 2.919959c.155868.182497.408532.216568.617007.091117l2.165232-1.375852c.565672.292772 1.167308.489073 1.766888.621376l.822191 2.44084c.082046.219246.30524.357392.550464.305762l3.764993-.703792c.23762-.045136.409347-.244408.385914-.487412l-.116938-2.569752c.260594-.156815.537506-.340716.773232-.542045.235726-.201329.47367-.430855.66932-.66371l2.519821.517497c.223358.04595.46114-.09138.541782-.304915l1.277607-3.616147c.089356-.234127-.019778-.46969-.215885-.591518l-2.28217-1.1939c-.03577-.626993-.136648-1.237832-.337325-1.84234l1.69763-1.923343c.150025-.193888.1559-.448771.000032-.631269l-2.493881-2.919959c-.155868-.182497-.415026-.224172-.617007-.091117l-2.165232 1.375852c-.565672-.292772-1.159704-.495568-1.766888-.621376l-.822191-2.44084c-.082046-.219246-.30524-.357392-.550464-.305762l-3.771488.696188c-.245223.05163-.402852.252012-.385914.487412l.10395 2.554544zm6.659738 3.701767c1.285908 1.505604 1.106156 3.789567-.399448 5.075474-1.505604 1.285908-3.789567 1.106156-5.075474-.399448-1.285908-1.505604-1.106156-3.789567.399448-5.075474 1.505604-1.285908 3.789567-1.106156 5.075474.399448zM1256.56369 5.6711c-.266217.143975-.528768.310009-.795744.503978-.258885.18809-.506015.392363-.71933.609149l-2.471452-.713604c-.219063-.063333-.466887.054918-.564034.261467l-1.55739 3.50476c-.107449.226395-.017133.469794.16881.606633l2.181464 1.369276c-.013534.627867.039106 1.244738.191736 1.863126l-1.8433 1.78422c-.170653.17343-.19063.435157-.04956.62932l2.257095 3.106626c.141068.194164.39028.247954.607956.139246l2.266505-1.201728c.540958.336251 1.125337.579151 1.712689.75809l.62815 2.497824c.064591.225006.276259.380238.524777.348007l3.808606-.406225c.240428-.026353.427261-.211538.422966-.45563l.085043-2.571006c.272095-.135885.562582-.297493.813377-.479707.250795-.182213.506015-.392363.71933-.609149l2.471452.713604c.219063.063333.466887-.054918.564034-.261467l1.55739-3.50476c.107449-.226395.017133-.469794-.16881-.606633l-2.181464-1.369276c.013534-.627867-.039106-1.244738-.191736-1.863126l1.8433-1.78422c.164776-.18152.19063-.435157.04956-.62932l-2.257095-3.106626c-.141068-.194164-.396158-.256044-.607956-.139246l-2.266505 1.201728c-.540958-.336251-1.117247-.58503-1.712689-.75809l-.62815-2.497824c-.064591-.225006-.276259-.380238-.524777-.348007l-3.814484.398135c-.248518.03223-.421383.219628-.422966.45563l-.096799 2.554826zm6.348771 4.212873c1.163815 1.601854.80542 3.864673-.796434 5.028488-1.601854 1.163815-3.864673.80542-5.028488-.796434-1.163815-1.601854-.80542-3.864673.796434-5.028488 1.601854-1.163815 3.864673-.80542 5.028488.796434zM1281.070842 5.421c-.276692.122645-.55146.267566-.832832.43999-.272845.1672-.53524.351453-.764907.550834l-2.407843-.905312c-.21342-.080325-.469757.018118-.58281.216408l-1.827568 3.371764c-.124882.217267-.053942.467002.120693.618008l2.067306 1.53621c-.062754.62487-.058675 1.24397.044966 1.872427l-1.977607 1.634096c-.183733.159506-.224182.418858-.098783.623492l2.006395 3.274138c.1254.204634.369623.27781.595156.186517l2.353806-1.020196c.512908.377658 1.076428.66566 1.64793.890128l.430236 2.539409c.046739.22938.245575.40074.495855.388108l3.828738-.106153c.241754-.007407.44254-.177363.45741-.42104l.2865-2.556408c.281917-.114117.584188-.252436.848507-.41441.264318-.161975.53524-.351453.764907-.550834l2.407843.905312c.21342.080325.469757-.018118.58281-.216408l1.827568-3.371764c.124882-.217267.053942-.467002-.120693-.618008l-2.067306-1.53621c.062754-.62487.058675-1.24397-.044966-1.872427l1.977607-1.634096c.178508-.168032.224182-.418858.098783-.623492l-2.006395-3.274138c-.1254-.204634-.374848-.286337-.595156-.186517l-2.353806 1.020196c-.512908-.377658-1.067902-.670884-1.64793-.890128l-.430236-2.539409c-.046739-.22938-.245575-.40074-.495855-.388108l-3.833963.097626c-.25028.012633-.437316.18589-.45741.421041l-.29695 2.539355zm5.998663 4.698005c1.034547 1.688228.499717 3.915952-1.18851 4.9505-1.688228 1.034547-3.915952.499717-4.9505-1.18851-1.034547-1.688228-.499717-3.915952 1.18851-4.9505 1.688228-1.034547 3.915952-.499717 4.9505 1.18851zM1305.596054 5.211462c-.285462.100557-.570753.223474-.864786.373291-.285122.145277-.561164.308374-.805766.489122l-2.329391-1.091439c-.20646-.096822-.46973-.018795-.597993.170014l-2.08648 3.21798c-.141543.2068-.090416.46133.071833.625572l1.940403 1.693675c-.111587.61802-.156094 1.23553-.102081 1.870182l-2.09972 1.473898c-.195682.144598-.256355.399978-.147397.61382l1.743323 3.421464c.108958.213842.346687.305955.578688.232637l2.426593-.832373c.481696.416736 1.020883.748063 1.573011 1.01668l.229671 2.565336c.028598.23234.213376.418773.463876.425816l3.825264.194574c.24159.011582.455092-.142095.489035-.383855l.48619-2.526049c.29-.091646.602193-.205823.878405-.34656.276212-.140737.561164-.308374.805766-.489122l2.329391 1.091439c.20646.096822.46973.018795.597993-.170014l2.08648-3.21798c.141543-.2068.090416-.46133-.071833-.625572l-1.940403-1.693675c.111587-.61802.156094-1.23553.102081-1.870182l2.09972-1.473898c.191142-.153508.256355-.399978.147397-.61382l-1.743323-3.421464c-.108958-.213842-.351227-.314865-.578688-.232637l-2.426593.832373c-.481696-.416736-1.011973-.752602-1.573011-1.01668l-.229671-2.565336c-.028598-.23234-.213376-.418773-.463876-.425816l-3.829804-.203484c-.2505-.007043-.450552.151005-.489035.383855l-.495269 2.508228zm5.61157 5.154172c.8989 1.764193.190935 3.943088-1.573258 4.84199-1.764193.8989-3.943088.190935-4.84199-1.573258-.8989-1.764193-.190935-3.943088 1.573258-4.84199 1.764193-.8989 3.943088-.190935 4.84199 1.573258zM1330.136087 5.043778c-.292471.07785-.586527.178004-.891408.30429-.295641.122458-.583629.263394-.841659.424393l-2.236577-1.270835c-.198226-.112723-.466807-.055592-.609488.122571l-2.332528 3.044358c-.157332.195056-.126332.452813.02253.62928l1.801537 1.840695c-.159732.60736-.252551 1.219474-.2485 1.856407l-2.208887 1.304613c-.206424.1288-.286947.378631-.195103.600362l1.469505 3.547698c.091844.22173.321613.332212.558651.277323l2.48442-.63942c.447515.453245.959044.825855 1.488394 1.136963l.02769 2.575448c.01028.233868.17986.434224.429036.460899l3.798206.4941c.239936.030503.464838-.10595.517644-.344302l.682882-2.480115c.296298-.068611.616486-.157942.902889-.276573.286402-.118632.583629-.263395.841659-.424394l2.236577 1.270835c.198226.112723.466807.055592.609488-.122571l2.332528-3.044358c.157332-.195056.126332-.452813-.02253-.62928l-1.801537-1.840695c.159732-.60736.252551-1.219474.2485-1.856407l2.208887-1.304613c.202597-.138038.286947-.378631.195103-.600362l-1.469505-3.547698c-.091844-.22173-.32544-.34145-.558651-.277323l-2.48442.63942c-.447515-.453245-.949805-.829682-1.488394-1.136963l-.02769-2.575448c-.01028-.233868-.17986-.434224-.429036-.460899l-3.802032-.50334c-.249176-.026675-.461012.11519-.517645.344303l-.690536 2.461638zm5.18988 5.578562c.757713 1.829281-.119025 3.945913-1.948307 4.703626-1.829281.757714-3.945913-.119024-4.703626-1.948306-.757714-1.829281.119024-3.945913 1.948306-4.703626 1.829281-.757714 3.945913.119024 4.703626 1.948306zM1354.687612 4.91898c-.297678.054663-.598686.131437-.912534.233413-.304338.098886-.602496.216792-.872362.35705l-2.129974-1.442398c-.188771-.127928-.461007-.092046-.617227.074374l-2.564195 2.851965c-.17215.18211-.16147.441505-.026912.629107l1.651565 1.976368c-.206893.592955-.347452 1.1959-.393386 1.831188l-2.304437 1.127284c-.215893.112206-.31577.35495-.241605.583204l1.186625 3.652057c.074164.228253.294557.356421.535171.3203l2.52693-.442524c.410573.48696.891291.898555 1.3946 1.250236l-.174463 2.569681c-.0081.233954.145238.446997.391552.49314l3.74773.790582c.236804.049233.471718-.069154.543063-.302628l.875365-2.418891c.300768-.045152.626977-.109086.921804-.204881.294828-.095795.602496-.216792.872362-.35705l2.129974 1.442398c.188771.127928.461007.092046.617227-.074374l2.564195-2.851965c.17215-.18211.16147-.441505.026912-.629107l-1.651565-1.976368c.206893-.592955.347452-1.1959.393386-1.831188l2.304437-1.127284c.212803-.121716.31577-.35495.241605-.583204l-1.186625-3.652057c-.074164-.228253-.297647-.365932-.535171-.3203l-2.52693.442524c-.410573-.48696-.88178-.901645-1.3946-1.250236l.174463-2.569681c.0081-.233954-.145238-.446997-.391552-.49314l-3.75082-.800092c-.246315-.046143-.468628.078664-.543063.302627l-.881545 2.39987zm4.736191 5.968559c.611854 1.883092-.42825 3.92441-2.311342 4.536264-1.883092.611854-3.92441-.42825-4.536264-2.311342-.611854-1.883092.42825-3.92441 2.311342-4.536264 1.883092-.611854 3.92441.42825 4.536264 2.311342zM1379.247228 4.83784c-.301049.031139-.607153.08406-.928035.161097-.311158.074702-.617647.168852-.897686.287504l-2.010239-1.605067c-.178152-.142344-.452364-.127933-.621159.025717l-2.780053 2.641989c-.185908.168042-.195612.427476-.076188.625056l1.49141 2.099857c-.252779.574894-.440211 1.164953-.535847 1.794678l-2.38578.943004c-.22403.094922-.342644.329081-.286617.56245l.89643 3.7339c.056027.23337.265684.378434.50839.361302l2.55386-.242898c.371102.517671.818045.965714 1.29221 1.3558l-.37554 2.548072c-.026432.232597.109719.457014.351653.52234l3.67415 1.082188c.23221.067661.475689-.03193.565131-.259086l1.06245-2.342754c.303384-.021415.633604-.059558.935039-.131926.301434-.072368.617647-.168852.897686-.287504l2.010239 1.605067c.178152.142344.452364.127933.621159-.025717l2.780053-2.641989c.185908-.168042.195612-.427476.076188-.625056l-1.49141-2.099857c.252779-.574894.440211-1.164953.535847-1.794678l2.38578-.943004c.221696-.104645.342644-.329081.286617-.56245l-.89643-3.7339c-.056027-.23337-.268019-.388158-.50839-.361302l-2.55386.242898c-.371102-.517671-.808321-.968049-1.29221-1.3558l.37554-2.548072c.026432-.232597-.109719-.457014-.351653-.52234l-3.676484-1.091912c-.241934-.065327-.473355.041653-.565132.259086l-1.06712 2.323307zm4.253304 6.321757c.462222 1.925292-.734836 3.878713-2.660129 4.340935-1.925292.462222-3.878713-.734836-4.340935-2.660129-.462222-1.925292.734836-3.878713 2.660129-4.340935 1.925292-.462222 3.878713.734836 4.340935 2.660129zM1403.811485 4.800857c-.302564.007423-.611876.036164-.937813.087787-.31606.050059-.628992.119872-.917477.216187l-1.87811-1.757841c-.166434-.155883-.440931-.16303-.621261-.023098l-2.978771 2.415724c-.19852.152938-.22855.41081-.124996.617152l1.32206 2.210398c-.297105.55329-.530255 1.126823-.675004 1.747103l-2.452412.752912c-.230787.077052-.367408.301183-.329863.538228l.600708 3.792723c.037544.237046.235174.398113.478477.400076l2.565044-.041776c.329342.545192.739754 1.02692 1.181851 1.453007l-.574302 2.510752c-.0446.229806.073524.464214.309588.54832l3.577915 1.367123c.226186.085671.476728.00549.583717-.213948l1.242986-2.252174c.304128.002455.636323-.009661.942506-.058156.306184-.048495.628992-.119872.917477-.216187l1.87811 1.757841c.166434.155883.440931.16303.621261.023098l2.978771-2.415724c.19852-.152938.22855-.41081.124996-.617152l-1.32206-2.210398c.297105-.55329.530255-1.126823.675004-1.747103l2.452412-.752912c.229223-.086928.367408-.301183.329863-.538228l-.600708-3.792723c-.037544-.237046-.236738-.40799-.478477-.400076l-2.565044.041776c-.329342-.545192-.729877-1.028485-1.181851-1.453007l.574302-2.510752c.0446-.229806-.073524-.464214-.309588-.54832l-3.579479-1.377c-.236064-.084107-.475164.004386-.583718.213948l-1.246114 2.23242zm3.744193 6.635979c.30974 1.955623-1.036891 3.809102-2.992514 4.118842-1.955623.30974-3.809102-1.036891-4.118842-2.992514-.30974-1.955623 1.036891-3.809102 2.992514-4.118842 1.955623-.30974 3.809102 1.036891 4.118842 2.992514zM1428.376904 4.808259c-.302213-.01634-.612827-.011955-.94181.013936-.319013.025107-.636457.070152-.93161.143536l-1.734401-1.899777c-.153691-.16846-.426782-.197123-.617535-.07177l-3.159124 2.174566c-.209906.13689-.260076.391612-.17303.605442l1.144557 2.307312c-.339599.528273-.61703 1.081746-.809998 1.688757l-2.503925.558176c-.236122.058707-.389906.271429-.371076.510689l.301283 3.828163c.01883.23926.203213.415336.445612.436383l2.560415.159604c.285551.56935.656902 1.081795 1.064206 1.541254l-.769523 2.457953c-.062493.225599.036876.468551.265613.57092l3.459622 1.643628c.218768.103154.474828.042878.598704-.16749l1.415858-2.147707c.302998.026308.63512.040293.944163.01597.309045-.024322.636458-.070151.93161-.143535l1.734402 1.899777c.153691.16846.426782.197123.617535.07177l3.159124-2.174566c.209906-.13689.260076-.391612.17303-.605442l-1.144557-2.307312c.339599-.528273.61703-1.081746.809998-1.688757l2.503925-.558176c.235337-.068677.389906-.271429.371076-.510689l-.301283-3.828163c-.01883-.23926-.203998-.425305-.445612-.436383l-2.560415-.159604c-.285551-.56935-.646933-1.08258-1.064206-1.541254l.769523-2.457953c.062493-.225599-.036876-.468551-.265613-.57092l-3.460407-1.653598c-.228736-.102369-.474043-.032908-.598704.16749l-1.417427 2.12777zm3.211998 6.909288c.15535 1.973897-1.332553 3.716006-3.30645 3.871355-1.973896.15535-3.716005-1.332553-3.871354-3.30645-.15535-1.973896 1.332553-3.716005 3.30645-3.871354 1.973896-.15535 3.716005 1.332553 3.871354 3.30645zM1452.94 4.86c-.3-.04-.61-.06-.94-.06-.32 0-.64.02-.94.07l-1.58-2.03c-.14-.18-.41-.23-.61-.12l-3.32 1.92c-.22.12-.29.37-.22.59l.96 2.39c-.38.5-.7 1.03-.94 1.62l-2.54.36c-.24.04-.41.24-.41.48v3.84c0 .24.17.43.41.47l2.54.36c.24.59.57 1.13.94 1.62l-.96 2.39c-.08.22 0 .47.22.59l3.32 1.91c.21.12.47.08.61-.12l1.58-2.03c.3.05.63.09.94.09.31 0 .64-.02.94-.07l1.58 2.03c.14.18.41.23.61.12l3.32-1.92c.22-.12.29-.37.22-.59l-.96-2.39c.38-.5.7-1.03.94-1.62l2.54-.36c.24-.05.41-.24.41-.48v-3.84c0-.24-.17-.44-.41-.47l-2.54-.36c-.24-.59-.56-1.13-.94-1.62l.96-2.39c.08-.22 0-.47-.22-.59l-3.32-1.92c-.22-.12-.47-.07-.61.12l-1.58 2.01zm2.66 7.14c0 1.98-1.62 3.6-3.6 3.6s-3.6-1.62-3.6-3.6 1.62-3.6 3.6-3.6 3.6 1.62 3.6 3.6z" fill="#000000"/></svg>